<?xml version="1.0" standalone="no"?>
<!DOCTYPE svg PUBLIC "-//W3C//DTD SVG 20010904//EN"
 "http://www.w3.org/TR/2001/REC-SVG-20010904/DTD/svg10.dtd">
<svg version="1.0" xmlns="http://www.w3.org/2000/svg"
 width="800.000000pt" height="800.000000pt" viewBox="0 0 800.000000 800.000000"
 preserveAspectRatio="xMidYMid meet">
<metadata>
Created by potrace 1.14, written by Peter Selinger 2001-2017
</metadata>
<g transform="translate(0.000000,800.000000) scale(0.100000,-0.100000)"
fill="#000000" stroke="none">
<path d="M0 7650 c0 -205 4 -350 9 -350 14 0 19 21 13 58 -4 29 -2 32 23 32
19 0 26 4 22 14 -3 7 -1 18 4 23 7 7 1 21 -15 41 -37 43 -36 96 1 114 19 9 29
22 31 40 3 23 0 26 -19 21 -20 -6 -21 -4 -14 28 4 19 8 58 9 87 0 28 4 52 9
52 4 0 7 5 7 11 0 27 46 50 64 32 8 -8 13 -9 41 -12 10 -1 15 -12 15 -35 0
-55 8 -66 49 -66 41 0 61 14 61 42 0 10 7 21 15 24 26 10 19 80 -11 120 -26
33 -26 35 -9 54 18 20 17 20 -143 20 l-162 0 0 -350z m225 300 c4 -7 13 -6 26
1 12 6 24 8 27 4 3 -3 -3 -8 -13 -11 -11 -3 -30 -21 -43 -40 -23 -35 -42 -44
-42 -21 0 7 5 18 12 25 8 8 8 15 0 25 -7 8 -9 17 -5 20 10 10 31 8 38 -3z"/>
<path d="M360 7979 c22 -19 25 -30 26 -88 1 -84 2 -86 17 -73 17 15 57 -20 57
-51 0 -21 -10 -61 -27 -107 -23 -61 1 -74 55 -30 27 22 38 37 35 50 -7 27 15
60 40 60 19 0 23 -6 24 -42 0 -24 -3 -48 -8 -54 -6 -8 -6 -38 1 -79 14 -86 5
-151 -21 -158 -25 -7 -42 -52 -29 -78 6 -11 9 -23 6 -28 -3 -4 -6 -36 -7 -69
-1 -38 -7 -66 -15 -73 -8 -6 -14 -17 -14 -23 -2 -48 -132 -90 -275 -87 -49 1
-94 6 -100 11 -5 4 -29 13 -53 19 -34 10 -42 16 -42 34 0 13 -7 32 -15 43 -13
17 -14 4 -15 -123 l0 -143 20 20 c12 12 18 25 15 30 -4 6 1 10 9 10 8 0 19 6
23 13 19 30 69 46 124 41 30 -3 61 -8 69 -12 18 -7 29 -9 53 -11 10 0 22 -12
27 -26 8 -20 15 -24 39 -22 17 2 36 8 43 14 44 35 178 29 178 -7 0 -34 24 -42
71 -23 48 19 62 29 72 55 7 21 -7 31 -47 33 -16 1 -32 7 -34 13 -2 8 7 11 27
8 18 -2 31 1 31 8 0 6 6 4 13 -4 15 -18 34 -23 63 -16 29 8 39 63 16 89 -12
14 -13 22 -6 35 6 9 9 23 7 30 -6 15 -33 16 -33 2 0 -21 -44 -70 -63 -70 -17
0 -19 5 -12 43 4 23 9 93 10 154 3 84 9 127 24 168 11 30 17 55 13 56 -4 0 3
4 16 9 16 7 22 18 22 39 0 34 15 45 72 54 29 4 41 2 50 -12 18 -24 59 -33 81
-17 16 13 16 14 -4 19 -29 8 -19 31 14 35 19 2 27 -1 27 -12 0 -9 4 -16 9 -16
4 0 8 -12 7 -26 -1 -21 -10 -31 -43 -48 -40 -20 -42 -24 -43 -63 0 -24 5 -43
10 -43 6 0 10 7 10 16 0 9 7 14 18 12 9 -2 21 5 27 17 6 11 23 26 38 33 16 8
32 24 37 37 6 15 20 25 44 29 33 6 35 8 21 23 -20 19 -15 37 13 41 16 2 19 -1
16 -15 -3 -12 6 -30 25 -50 29 -31 29 -31 14 -75 -11 -32 -13 -64 -8 -128 13
-164 13 -224 -2 -258 l-14 -34 -67 6 c-129 12 -146 11 -174 -9 -15 -11 -26
-24 -24 -30 2 -6 40 -10 87 -10 46 0 103 -4 127 -8 32 -7 51 -5 76 7 31 14 34
21 41 73 4 32 8 99 10 148 1 50 7 126 14 170 6 44 8 105 5 136 -4 40 -3 59 6
64 8 5 16 1 22 -9 5 -9 18 -16 28 -16 11 0 20 -4 20 -9 0 -5 7 -12 16 -15 9
-3 12 -2 9 4 -4 6 5 10 22 9 37 -3 93 10 93 22 0 8 -48 12 -137 13 -13 0 -23
6 -23 13 0 9 8 11 23 8 12 -3 51 -2 87 3 39 6 67 6 71 0 6 -10 40 0 50 15 3 5
9 2 12 -7 4 -9 2 -16 -4 -16 -6 0 -9 -7 -6 -15 4 -8 2 -17 -4 -20 -5 -4 -7
-11 -4 -16 9 -13 -47 -66 -74 -71 -12 -1 -22 -7 -22 -12 1 -14 31 -16 31 -3 0
7 5 4 11 -6 8 -13 14 -15 30 -7 30 17 36 5 33 -59 -3 -56 -2 -59 21 -65 14 -4
34 -1 45 6 22 14 27 54 8 60 -6 2 -8 10 -4 16 10 16 46 -3 46 -23 0 -8 5 -15
10 -15 6 0 10 7 10 15 0 9 7 18 15 21 8 4 15 15 15 25 0 10 7 19 15 19 8 0 15
-8 15 -18 0 -10 5 -23 11 -29 14 -14 39 -6 39 13 0 8 6 11 15 8 11 -5 15 1 15
17 0 13 -4 29 -8 36 -9 14 -94 12 -104 -2 -16 -21 -7 22 9 45 9 14 17 26 17
27 1 1 15 4 31 8 22 5 26 4 15 -4 -12 -8 -10 -14 13 -35 36 -33 63 -36 46 -4
-9 17 -9 24 4 33 9 7 12 16 7 25 -5 9 -3 20 6 28 8 7 14 9 14 5 0 -4 7 0 14
10 8 11 28 18 55 19 23 1 44 5 47 9 2 5 10 6 18 3 9 -3 11 -21 8 -60 -3 -35 0
-65 8 -80 10 -18 12 -66 6 -206 -9 -248 -10 -255 -50 -260 -17 -1 -58 -1 -91
2 -34 3 -79 0 -104 -7 -55 -16 -147 -17 -157 -2 -4 8 -22 9 -53 4 -25 -4 -68
-8 -96 -9 -39 -2 -51 -6 -53 -19 -3 -14 3 -18 30 -17 18 1 56 -2 83 -7 l50 -8
-3 -40 c-2 -22 -5 -79 -6 -126 -2 -47 -7 -92 -11 -99 -5 -8 -9 -44 -9 -81 -1
-37 -4 -71 -8 -75 -16 -16 -101 -21 -262 -17 -147 4 -174 3 -185 -11 -25 -29
28 -31 309 -10 l75 5 19 -50 c15 -36 27 -52 44 -56 18 -4 21 -9 13 -19 -6 -8
-24 -16 -40 -19 -28 -6 -32 -15 -32 -73 1 -18 -6 -37 -14 -44 -19 -16 -19 -44
-1 -59 12 -10 12 -16 -1 -42 -12 -25 -13 -36 -4 -56 9 -20 9 -35 -2 -67 -33
-96 -45 -143 -46 -174 0 -18 -5 -40 -11 -47 -7 -8 -9 -18 -6 -23 3 -5 -4 -16
-15 -25 -24 -21 -17 -37 16 -37 15 0 26 7 30 19 3 12 14 19 25 18 26 -2 26
-14 0 -22 -12 -4 -22 -19 -26 -41 -3 -19 -12 -38 -19 -42 -16 -9 -25 -89 -13
-122 12 -31 2 -70 -18 -70 -8 0 -20 -13 -25 -29 -7 -19 -21 -33 -39 -40 -22
-7 -31 -19 -40 -50 -6 -23 -14 -41 -18 -41 -14 0 -29 56 -31 120 -1 35 -4 67
-7 72 -9 15 37 133 62 159 15 15 27 39 27 52 0 20 3 23 24 19 22 -4 24 -2 18
17 -5 16 -1 23 17 31 17 8 5 9 -52 6 -53 -3 -83 1 -107 12 -26 12 -38 13 -58
4 -35 -16 -76 -15 -101 2 -18 13 -24 13 -49 0 -20 -10 -30 -11 -35 -4 -4 7
-39 10 -89 9 -82 -2 -82 -2 -111 32 -28 34 -28 34 -9 55 23 25 24 41 3 82 -13
27 -18 30 -35 22 -22 -12 -23 -9 -34 53 l-6 39 28 -26 c43 -40 53 -33 59 43
11 120 9 146 -7 149 -12 2 -18 -7 -22 -36 -2 -22 -15 -54 -28 -72 l-24 -32 -6
32 c-5 20 0 51 12 85 18 52 15 97 -9 128 -14 18 -24 79 -12 72 5 -3 30 8 55
25 25 17 45 28 45 25 0 -3 10 1 23 8 12 8 32 13 45 12 38 -4 26 29 -18 49 -22
10 -41 20 -41 24 -1 4 -3 17 -4 30 -1 13 -9 31 -18 39 -17 17 -22 11 -41 -50
-3 -10 -10 -15 -16 -12 -5 3 -25 -1 -44 -10 -19 -9 -41 -13 -48 -9 -7 4 -10 4
-6 -1 11 -12 -27 -35 -66 -40 -23 -3 -38 0 -47 11 -7 9 -24 20 -37 25 -17 7
-22 14 -17 27 13 33 17 72 8 72 -10 0 -49 -61 -45 -72 1 -5 -2 -8 -8 -8 -5 0
-12 15 -16 34 -8 46 -27 51 -48 14 -14 -22 -16 -40 -11 -73 7 -51 9 -52 115
-60 142 -12 185 -50 141 -127 -17 -30 -22 -56 -23 -121 -1 -45 -6 -88 -11 -94
-5 -7 -6 -32 -2 -55 3 -24 9 -82 11 -130 5 -78 3 -89 -15 -107 -26 -26 -116
-29 -147 -6 -22 17 -65 20 -80 5 -14 -14 -151 -19 -192 -8 -18 5 -39 20 -48
33 -20 31 -50 32 -58 3 -5 -21 -7 -22 -22 -6 -18 17 -12 38 12 38 8 0 14 5 14
10 0 6 -4 10 -10 10 -5 0 -10 6 -10 13 0 7 -8 22 -19 33 -14 16 -18 33 -16 80
3 65 18 114 36 114 8 0 10 12 6 35 -3 19 -1 37 4 40 18 12 10 45 -11 45 -16 0
-20 -6 -18 -32 2 -26 -1 -33 -14 -32 -17 2 -18 -17 -18 -258 0 -244 1 -260 17
-253 75 30 106 37 126 27 42 -20 89 -32 101 -25 15 10 149 3 161 -8 12 -12 52
-12 60 1 10 16 47 11 83 -10 21 -13 45 -19 62 -16 20 3 30 -1 34 -11 5 -12 15
-14 49 -8 52 10 89 13 197 16 47 1 90 6 95 10 18 12 113 -3 133 -22 11 -10 37
-19 58 -21 43 -3 42 1 22 -93 -6 -27 -12 -103 -13 -168 -3 -101 -6 -120 -22
-132 -10 -8 -23 -15 -29 -15 -14 0 -31 44 -33 85 -3 61 -63 71 -75 12 -8 -37
-52 -87 -78 -87 -11 0 -17 3 -14 8 8 14 -23 72 -39 72 -10 0 -23 -16 -32 -40
-18 -46 -30 -51 -39 -15 -9 35 -52 34 -79 -1 -50 -67 -49 -67 -74 -33 -22 29
-24 30 -42 13 -10 -9 -22 -14 -25 -11 -10 10 25 57 42 57 13 0 15 6 9 28 -7
30 -12 66 -14 112 -1 22 -6 30 -19 30 -10 0 -22 -3 -26 -7 -3 -4 -14 -8 -24
-9 -9 -1 -28 -6 -41 -10 -19 -6 -23 -4 -19 7 3 8 -3 25 -13 37 -14 19 -26 22
-62 20 -35 -2 -43 -6 -36 -18 4 -8 14 -30 21 -47 7 -18 20 -33 28 -33 9 0 21
-5 27 -11 8 -8 23 -5 53 11 40 21 42 21 56 3 20 -26 17 -33 -13 -34 -17 -1
-21 -3 -10 -6 9 -2 17 -8 17 -12 0 -15 -63 -43 -87 -38 -16 3 -32 -2 -44 -14
-19 -19 -19 -18 -19 28 0 25 -3 43 -7 40 -3 -4 -13 -1 -21 5 -11 10 -18 8 -32
-10 -22 -27 -56 -31 -45 -4 21 48 32 87 29 97 -2 5 -28 11 -56 12 -54 1 -89
-16 -96 -47 -5 -23 -27 -31 -98 -35 -52 -3 -70 -8 -85 -26 -19 -22 -19 -68
-18 -2188 1 -1277 5 -2148 10 -2121 11 54 25 174 39 325 5 61 14 135 19 165 5
30 13 74 17 98 3 23 11 45 15 48 5 3 9 14 9 24 0 11 11 43 24 72 14 29 43 109
66 177 40 119 41 128 31 180 -22 108 -9 249 34 361 19 51 91 196 106 214 46
54 135 179 150 211 10 22 39 72 63 110 25 39 62 104 82 145 39 77 149 200 179
200 8 0 25 12 37 26 13 14 39 32 58 41 19 8 67 30 105 49 39 18 84 36 100 40
34 8 99 42 161 85 24 16 50 29 58 29 9 0 25 4 36 10 11 5 29 15 40 20 40 20
64 35 84 53 34 30 163 87 212 94 32 4 69 22 124 59 44 30 84 54 90 54 5 0 29
8 53 19 56 25 92 37 152 51 171 39 262 73 295 110 3 3 21 17 40 31 20 15 47
49 60 75 14 27 49 72 79 99 29 28 65 63 80 79 14 16 48 53 75 82 27 30 57 54
67 54 10 0 21 9 24 21 11 32 35 3 35 -42 0 -21 4 -48 9 -61 5 -13 19 -49 31
-80 12 -32 26 -58 30 -58 5 0 9 -15 9 -32 2 -80 3 -94 13 -106 13 -15 2 -120
-14 -139 -16 -19 -3 -27 20 -12 17 10 23 10 38 -5 14 -15 15 -19 3 -27 -20
-12 -39 -11 -39 3 0 9 -3 9 -12 0 -16 -16 -6 -23 31 -24 17 -1 31 -4 31 -8 0
-4 10 -11 23 -15 22 -6 21 -7 -22 -21 -11 -4 -8 -11 12 -29 14 -14 31 -25 37
-25 18 0 60 -36 52 -45 -4 -5 2 -5 13 0 42 16 50 11 53 -27 3 -37 16 -50 25
-25 3 9 7 9 20 -2 9 -7 15 -17 12 -21 -3 -5 -1 -11 5 -15 13 -8 13 -145 0
-145 -5 0 -15 10 -21 22 -11 20 -13 20 -24 5 -7 -10 -19 -15 -29 -11 -9 3 -16
2 -16 -3 0 -5 -10 -9 -22 -9 -18 1 -23 -7 -30 -39 -5 -22 -18 -48 -29 -57 -17
-14 -21 -30 -22 -78 -1 -45 -5 -60 -15 -60 -12 0 -12 3 -2 15 15 18 -1 20 -18
3 -22 -22 -114 -18 -111 5 1 7 1 21 0 32 -2 20 -2 20 -16 1 -15 -20 -15 -20
-16 0 -1 10 -1 22 0 27 0 4 -4 7 -10 7 -7 0 -10 14 -7 35 3 23 0 35 -8 35 -6
0 -16 12 -22 28 -6 15 -13 36 -18 47 -25 69 -42 327 -25 385 21 71 44 499 27
501 -12 1 -46 -60 -75 -136 -13 -33 -27 -69 -31 -80 -5 -11 -16 -45 -25 -75
-10 -30 -26 -71 -36 -90 l-19 -35 25 30 c14 17 25 25 25 20 0 -6 -4 -15 -8
-20 -5 -6 -15 -26 -22 -45 -7 -19 -22 -47 -32 -62 -20 -29 -22 -38 -9 -38 5 0
11 9 14 20 3 11 12 20 21 20 23 0 20 -47 -4 -62 -11 -7 -20 -20 -20 -28 0 -27
-25 -86 -43 -104 -9 -10 -17 -23 -17 -31 0 -7 -11 -36 -25 -63 -31 -61 -42
-112 -26 -112 7 0 20 13 29 30 9 16 20 30 25 30 4 0 7 11 7 25 0 15 6 25 14
25 8 0 14 6 13 13 -1 42 3 47 36 41 59 -10 64 -14 38 -28 l-23 -13 22 -6 c17
-4 21 -10 15 -24 -4 -10 -8 -45 -9 -78 -3 -69 -21 -105 -53 -105 -29 0 -30
-26 -2 -33 25 -7 20 -33 -7 -30 -25 2 -56 -16 -48 -29 4 -5 1 -14 -6 -18 -8
-5 -9 -13 -4 -21 4 -8 7 -26 5 -41 -2 -19 3 -28 18 -33 12 -3 21 -11 21 -16 0
-5 9 -9 20 -9 13 0 20 7 20 20 0 11 5 20 10 20 6 0 10 -5 10 -10 0 -10 -2 -14
-39 -86 -11 -23 -21 -48 -21 -55 0 -8 -13 -28 -28 -46 -52 -60 -60 -71 -67
-92 -10 -34 1 -24 29 23 14 25 35 48 46 51 11 4 17 11 14 17 -4 6 4 21 18 32
13 12 30 39 36 61 11 38 63 105 81 105 5 0 13 -12 18 -27 6 -16 16 -44 23 -63
7 -19 12 -49 11 -67 0 -18 4 -35 9 -38 18 -11 10 -34 -25 -71 l-35 -35 31 -55
c16 -30 27 -59 24 -64 -3 -4 4 -11 15 -15 21 -7 27 -39 10 -50 -12 -7 -14 -55
-2 -55 6 0 33 -79 48 -142 3 -16 0 -39 -9 -58 -17 -32 -12 -37 16 -16 10 8 21
33 25 57 5 30 13 45 25 47 12 3 17 -3 17 -22 0 -14 5 -28 11 -32 6 -3 8 -19 5
-38 -5 -26 -2 -33 16 -41 25 -11 36 -57 20 -78 -5 -7 -12 -25 -16 -42 -5 -22
-4 -26 4 -15 8 12 10 11 10 -7 0 -13 9 -32 19 -42 11 -11 17 -22 13 -25 -3 -3
2 -6 11 -6 9 0 17 -6 17 -12 0 -7 18 -49 40 -92 22 -43 40 -83 40 -87 0 -5 12
-34 26 -66 25 -53 53 -177 53 -233 1 -30 -11 -51 -30 -53 -8 -2 -20 -6 -27
-10 -7 -5 -25 -10 -40 -13 -24 -4 -71 -12 -110 -20 -8 -1 -22 -10 -31 -18 -10
-9 -24 -16 -32 -16 -8 0 -20 -5 -26 -11 -8 -8 -14 -5 -23 11 -17 31 -54 23
-58 -13 -4 -34 -35 -34 -40 1 -3 20 -5 20 -18 7 -9 -8 -13 -19 -10 -24 3 -5
-1 -22 -9 -37 -8 -16 -15 -44 -15 -61 0 -30 3 -33 30 -33 18 0 33 6 36 15 8
19 24 19 24 0 0 -16 42 -31 59 -21 6 4 22 4 37 0 27 -7 27 -7 6 -15 -33 -13
-28 -32 7 -24 24 5 32 2 42 -16 10 -19 13 -20 20 -6 5 9 15 14 22 11 8 -3 27
19 48 56 19 34 61 98 94 143 55 76 125 219 125 257 0 9 4 20 9 25 4 6 16 33
26 60 10 28 23 56 28 63 17 22 11 88 -9 109 -60 64 -73 83 -68 96 3 8 -2 17
-10 20 -9 4 -13 13 -10 22 4 8 1 22 -6 30 -14 17 -22 53 -22 100 -1 16 -7 34
-15 40 -8 6 -14 15 -13 20 5 24 -1 46 -18 63 -13 13 -18 33 -17 72 0 48 -3 56
-22 65 -16 7 -23 18 -23 38 0 17 4 26 10 22 6 -4 8 -10 5 -15 -3 -4 1 -10 8
-13 15 -6 94 7 104 17 3 3 11 2 17 -3 17 -14 67 -1 64 17 -4 21 43 33 67 16
16 -12 17 -14 2 -20 -25 -9 -21 -17 16 -34 23 -11 27 -15 15 -18 -11 -2 -18
-13 -18 -27 0 -13 -2 -29 -5 -37 -3 -7 0 -20 5 -28 8 -12 13 -13 30 -3 27 17
59 16 66 -2 6 -16 44 -21 44 -6 0 19 40 18 61 -2 20 -19 22 -19 16 -3 -5 13
-3 17 7 13 8 -3 27 11 47 36 35 45 40 50 97 112 48 51 123 115 135 115 6 0 7
-3 4 -7 -4 -3 -2 -12 4 -19 8 -9 6 -11 -9 -7 -12 3 -22 -2 -26 -12 -3 -9 -2
-13 3 -10 17 10 22 -15 7 -31 -20 -20 -20 -34 -1 -34 8 0 15 8 15 19 0 17 13
25 57 36 6 2 27 15 46 29 19 14 41 26 50 26 11 0 17 8 17 25 0 16 6 25 15 25
8 0 15 5 15 10 0 7 6 7 19 0 11 -5 29 -10 40 -10 12 0 21 -4 21 -10 0 -10 -74
-62 -102 -73 -10 -4 -18 -11 -18 -17 0 -42 149 54 150 98 0 15 12 16 26 2 7
-7 16 9 28 50 20 75 42 110 68 110 11 0 18 6 16 15 -4 18 29 68 54 84 25 16
48 -7 48 -49 0 -18 4 -29 10 -25 6 3 10 18 10 33 1 15 7 38 15 52 l13 25 7
-26 c3 -14 5 -43 3 -65 -3 -35 -6 -39 -29 -37 l-27 1 1 -126 c1 -112 -1 -132
-20 -167 -12 -22 -37 -74 -56 -115 -19 -41 -44 -84 -56 -94 -16 -15 -20 -26
-15 -55 9 -57 -8 -86 -73 -120 -61 -33 -214 -174 -272 -251 -57 -75 -370 -381
-461 -450 -47 -36 -94 -74 -106 -85 -11 -11 -47 -42 -79 -70 -32 -27 -68 -59
-79 -70 -19 -18 -97 -83 -150 -125 -28 -23 -126 -119 -126 -125 0 -3 7 -5 15
-5 8 0 15 5 15 10 0 15 43 12 67 -5 35 -25 44 -67 22 -104 -40 -65 -104 -62
-137 6 -13 28 -14 36 -2 58 16 29 11 38 -11 22 -22 -17 -79 -103 -79 -119 0
-8 -7 -23 -15 -34 -8 -10 -15 -31 -15 -46 0 -15 -4 -30 -10 -33 -24 -15 -10
-60 36 -109 5 -6 13 -20 17 -30 6 -14 11 -16 18 -9 14 14 -6 53 -26 53 -8 0
-15 7 -15 15 0 17 16 20 25 5 3 -5 14 -10 24 -10 10 0 21 -9 24 -20 6 -25 37
-27 37 -2 0 10 8 25 18 34 37 37 52 55 52 65 0 6 10 18 23 26 18 13 19 16 5
16 -10 1 -18 6 -18 12 0 6 9 8 20 4 14 -4 27 1 44 19 13 14 33 26 44 26 16 0
20 5 15 18 -3 10 2 7 13 -7 17 -23 18 -23 25 -5 12 34 29 -29 22 -86 -4 -31
-2 -50 4 -50 12 0 23 33 23 67 0 13 9 37 19 55 11 17 18 35 15 40 -3 4 3 11
13 15 10 3 26 13 35 21 10 8 18 11 18 7 0 -5 7 0 16 11 15 19 15 18 11 -3 -7
-34 -1 -28 23 21 12 24 45 67 72 96 28 29 47 58 44 66 -3 8 -1 13 4 11 5 -1
37 39 69 88 33 50 64 95 69 100 20 25 131 194 153 235 13 25 34 59 46 76 13
17 23 34 23 38 0 5 9 21 20 36 11 16 33 52 49 82 141 262 162 283 284 287 38
1 76 6 85 11 9 4 33 15 53 24 20 9 42 22 49 31 7 8 18 15 25 15 7 0 15 7 19
15 3 8 17 20 31 25 14 5 25 14 25 20 0 6 5 8 10 5 16 -10 12 -45 -6 -45 -8 0
-12 -4 -9 -10 3 -5 2 -10 -3 -10 -4 0 -15 -16 -22 -36 -8 -20 -22 -40 -32 -45
-10 -5 -18 -15 -18 -21 0 -15 -47 -55 -92 -79 -37 -19 -138 -113 -138 -128 0
-5 -18 -20 -39 -35 -29 -21 -43 -39 -53 -73 -7 -25 -22 -53 -34 -62 -11 -9
-23 -23 -27 -31 -4 -8 -14 -26 -22 -40 -8 -14 -15 -37 -15 -52 0 -16 -4 -28
-10 -28 -5 0 -10 -19 -10 -42 0 -26 -8 -55 -20 -73 -14 -20 -18 -39 -14 -57 4
-22 2 -28 -11 -28 -9 0 -22 -15 -31 -35 -8 -19 -18 -35 -23 -35 -5 0 -12 -22
-16 -50 -4 -27 -11 -52 -16 -56 -5 -3 -9 -12 -9 -20 0 -8 -11 -32 -25 -52 -14
-20 -25 -40 -25 -43 0 -13 100 -29 176 -29 41 0 73 4 70 9 -3 5 1 14 9 21 12
10 13 16 4 26 -8 10 -8 14 0 14 6 0 11 15 11 34 0 26 7 40 27 56 20 16 24 23
14 29 -18 11 7 131 29 138 38 11 43 20 44 73 1 47 4 55 19 52 13 -2 18 2 16
15 -6 36 10 72 34 75 16 2 23 11 27 33 3 17 10 39 17 50 12 20 12 20 26 1 13
-18 14 -18 21 9 4 16 14 34 22 40 8 6 16 17 18 25 1 8 7 25 14 36 6 12 8 24 5
28 -3 3 -1 6 5 6 6 0 17 11 24 24 29 52 69 106 79 106 5 0 7 -6 3 -12 -7 -12
16 3 42 27 28 26 84 117 95 155 7 23 18 43 23 45 6 2 24 6 40 10 16 3 30 14
33 25 3 11 12 20 19 20 8 0 19 11 25 23 8 18 17 23 35 19 18 -3 24 0 24 12 0
10 -4 14 -10 11 -6 -3 -7 1 -4 9 3 9 10 13 15 10 22 -13 92 51 196 178 30 37
58 68 63 70 4 2 17 19 27 38 11 20 37 43 62 55 23 12 41 24 40 26 -1 2 3 14
10 27 8 15 8 22 1 22 -6 0 -3 12 8 28 16 22 18 38 14 85 -3 35 -9 57 -17 57
-14 0 -75 65 -75 80 0 28 45 84 60 75 5 -3 10 -4 10 0 0 3 -10 10 -22 15 -21
8 -19 9 11 9 21 1 39 -6 47 -16 18 -24 17 -43 -1 -43 -9 0 -12 -6 -8 -15 3 -9
-2 -22 -13 -30 -18 -13 -17 -14 13 -15 50 0 51 -20 1 -21 -34 -2 -37 -3 -13
-6 45 -7 55 -19 44 -56 -5 -18 -9 -33 -9 -34 0 -2 8 -3 18 -3 21 0 42 38 42
75 0 14 5 25 11 25 6 0 17 7 26 15 8 9 29 19 46 22 17 4 32 14 34 25 3 10 12
18 19 18 9 0 14 12 14 33 0 35 12 49 79 89 45 27 42 39 -11 52 -19 4 -28 13
-28 26 0 11 5 20 11 20 5 0 7 -5 4 -10 -4 -6 5 -10 19 -10 19 0 27 7 32 25 3
14 10 25 15 25 5 0 9 13 9 30 0 24 -5 31 -27 36 -14 4 -34 2 -44 -5 -10 -6
-25 -11 -32 -11 -27 0 -50 -91 -27 -105 17 -10 11 -25 -9 -25 -10 0 -25 10
-33 23 -17 25 -31 87 -20 87 4 0 20 11 36 25 16 14 33 25 39 25 5 0 6 15 3 34
-8 40 3 51 30 31 26 -19 44 -19 60 3 10 13 17 15 31 6 13 -8 31 -8 68 2 100
24 103 25 120 8 8 -9 13 -24 10 -33 -4 -13 3 -16 43 -14 111 5 140 10 156 26
23 23 43 21 56 -4 9 -15 18 -19 38 -15 15 4 39 0 54 -8 15 -8 37 -12 49 -9 18
5 21 3 16 -11 -4 -10 -7 -24 -7 -31 0 -7 -11 -23 -25 -36 -27 -26 -32 -54 -12
-62 9 -4 9 -6 0 -6 -7 -1 -13 -11 -13 -23 l0 -23 18 23 c10 13 21 20 25 16 12
-13 8 -52 -7 -57 -9 -4 -12 -14 -9 -26 3 -11 0 -35 -6 -53 -15 -42 0 -57 28
-27 11 13 21 28 21 33 0 6 5 4 10 -4 7 -11 10 -3 10 31 0 42 13 69 32 69 5 0
3 -10 -3 -22 -10 -18 -8 -24 11 -40 22 -18 23 -18 56 3 40 24 64 19 64 -13 0
-13 5 -30 10 -38 8 -13 10 -12 10 4 0 26 13 11 17 -19 3 -16 -1 -25 -10 -25
-8 0 -19 -12 -26 -26 -6 -15 -22 -35 -35 -45 -13 -10 -26 -29 -30 -43 -3 -13
-14 -26 -23 -30 -10 -3 -24 -9 -31 -12 -10 -5 -13 1 -10 22 2 20 10 30 26 34
23 5 23 5 3 22 -17 15 -19 22 -9 48 8 23 7 35 -1 43 -8 8 -11 8 -11 0 0 -6
-10 -13 -22 -16 -20 -6 -21 -7 -5 -24 14 -16 14 -24 3 -56 -7 -20 -15 -40 -19
-43 -4 -4 -7 -16 -7 -27 0 -13 -5 -17 -16 -13 -9 3 -21 6 -27 6 -7 0 -18 4
-26 9 -12 8 -12 12 -2 25 7 9 10 23 7 33 -12 30 -38 -10 -47 -73 -12 -90 21
-120 77 -69 21 19 29 22 36 13 6 -10 14 -6 30 15 21 26 26 27 52 17 22 -8 26
-14 18 -22 -7 -7 -12 -24 -12 -38 0 -14 -7 -35 -15 -46 -13 -16 -16 -17 -25
-4 -5 8 -11 20 -13 25 -3 6 -16 -1 -30 -13 -23 -22 -26 -22 -35 -6 -8 14 -15
15 -38 7 -16 -6 -44 -8 -62 -5 -29 4 -32 8 -32 38 0 19 5 42 11 52 8 13 7 29
-4 62 -12 36 -19 44 -36 42 -12 -2 -21 2 -21 8 0 6 -14 2 -31 -11 -23 -16 -33
-19 -42 -10 -9 9 -6 17 13 31 14 11 31 20 38 20 6 0 12 5 12 10 0 6 11 10 25
10 17 0 25 -6 26 -17 0 -11 3 -13 6 -5 2 6 11 12 18 12 14 0 35 29 35 49 0 6
-7 11 -15 11 -8 0 -15 8 -15 18 -1 41 -50 67 -50 26 0 -21 -18 -17 -25 6 -3
11 -12 20 -19 20 -8 0 -19 6 -25 14 -9 11 -6 15 15 20 15 4 32 2 37 -3 17 -17
55 -13 65 5 11 20 4 54 -12 55 -6 0 -1 4 12 9 30 13 28 30 -4 30 -14 0 -23 4
-20 8 6 10 -40 9 -50 -1 -5 -4 2 -10 14 -13 34 -9 42 -64 9 -64 -7 0 -25 10
-41 23 -25 21 -28 29 -29 85 0 52 -3 62 -16 60 -9 -2 -17 -12 -19 -23 -7 -34
-24 -47 -54 -41 -17 3 -39 -1 -58 -12 -40 -23 -46 -42 -13 -42 25 0 25 -1 9
-13 -17 -12 -17 -14 -2 -30 14 -13 15 -21 6 -37 -11 -20 -9 -21 24 -14 23 4
42 2 51 -6 19 -16 35 -4 36 28 2 26 2 26 6 3 5 -25 -14 -71 -29 -71 -5 0 -6 5
-3 10 3 6 2 10 -2 10 -14 0 -33 -23 -33 -40 0 -8 -9 -23 -21 -33 -13 -12 -18
-24 -14 -38 5 -13 -1 -26 -17 -39 -26 -22 -38 -25 -38 -10 0 5 -14 24 -31 41
-27 27 -29 33 -16 41 18 9 12 36 -10 53 -8 6 -14 19 -13 30 1 35 7 79 15 107
4 15 2 34 -3 44 -9 16 -11 15 -21 -4 -6 -12 -9 -33 -5 -46 4 -18 0 -34 -15
-52 -12 -15 -21 -31 -21 -37 0 -6 -12 -26 -26 -44 l-26 -35 18 -35 c11 -19 25
-37 32 -40 17 -7 15 -53 -2 -53 -8 0 -18 5 -21 10 -11 17 -33 11 -40 -11 -10
-31 9 -45 41 -30 35 15 61 6 66 -24 5 -26 -18 -55 -44 -55 -20 0 -28 -9 -21
-26 13 -34 93 4 93 44 0 7 6 12 13 9 6 -2 12 -11 12 -20 0 -9 5 -17 10 -17 11
0 12 3 14 65 0 26 6 45 12 45 6 0 9 -9 6 -19 -3 -14 5 -26 29 -43 19 -13 34
-29 34 -36 0 -7 13 -18 29 -23 16 -6 32 -17 35 -25 3 -7 12 -11 20 -8 14 5 33
-9 64 -48 12 -15 9 -19 -30 -37 -67 -30 -89 -35 -100 -20 -7 11 -11 11 -14 2
-3 -7 -21 -15 -39 -19 -19 -3 -39 -12 -46 -20 -10 -12 -2 -14 44 -14 36 0 59
5 67 15 15 18 34 19 62 4 20 -11 20 -11 -5 -24 -14 -7 -42 -15 -63 -18 -67 -9
-97 -18 -149 -42 -73 -33 -158 -65 -176 -65 -14 0 -28 -9 -103 -65 -31 -24
-34 -35 -6 -28 11 3 20 9 20 14 0 5 7 9 15 9 8 0 15 5 15 10 0 6 11 10 24 10
14 0 27 4 30 9 6 8 123 56 197 80 19 6 49 11 65 11 17 0 40 9 52 21 13 11 28
18 35 16 8 -4 7 -6 -3 -6 -10 -1 -8 -6 8 -17 16 -11 22 -25 22 -53 0 -46 6
-53 31 -38 14 9 21 9 30 0 16 -16 4 -43 -21 -43 -13 0 -20 -7 -20 -20 0 -24
13 -26 30 -5 10 12 15 13 21 4 9 -15 0 -41 -12 -33 -5 3 -9 -2 -9 -11 0 -8
-10 -20 -22 -26 -34 -15 -51 -57 -33 -76 17 -16 20 -33 6 -33 -5 0 -17 -3 -27
-7 -14 -5 -16 -2 -12 15 4 12 2 22 -3 22 -5 0 -8 -15 -8 -32 1 -18 -1 -49 -5
-68 -7 -34 -7 -34 6 -10 7 14 24 26 36 28 27 4 27 5 2 -46 -24 -49 -24 -59 -6
-77 7 -8 11 -25 9 -39 -5 -22 -11 -26 -39 -26 -20 0 -37 -6 -40 -13 -10 -26
-11 -102 -1 -114 11 -15 -8 -43 -28 -43 -19 0 -45 -35 -45 -61 0 -39 -23 -79
-45 -79 -16 0 -17 2 -5 10 12 8 12 10 -2 15 -26 10 -73 1 -70 -13 1 -8 -12
-12 -43 -12 -25 0 -45 -4 -45 -9 0 -5 -13 -12 -30 -16 -45 -10 -31 -29 25 -35
50 -5 73 2 108 30 14 11 22 12 37 2 26 -16 70 4 70 30 0 14 6 19 23 16 14 -2
20 -9 18 -18 -2 -8 -6 -34 -7 -58 -4 -41 -30 -102 -45 -102 -4 0 -26 -26 -49
-57 -48 -65 -128 -143 -147 -143 -7 0 -13 -4 -13 -10 0 -5 -7 -10 -15 -10 -8
0 -24 -4 -35 -10 -11 -5 -29 -14 -40 -20 -11 -5 -28 -10 -38 -10 -10 0 -22 -4
-27 -9 -6 -5 -46 -20 -90 -34 -103 -33 -148 -52 -165 -71 -10 -14 -9 -16 8
-16 11 0 25 -6 31 -14 8 -10 34 -12 106 -9 64 3 95 1 95 -6 0 -14 67 -14 75
-1 12 20 37 11 34 -12 -2 -13 0 -29 5 -36 4 -8 1 -28 -9 -49 -16 -33 -19 -35
-30 -20 -16 22 -27 21 -43 -3 -7 -11 -19 -20 -26 -20 -8 0 -31 -18 -52 -40
-21 -22 -44 -40 -51 -40 -7 0 -13 -4 -13 -10 0 -5 -7 -10 -15 -10 -8 0 -15 -4
-15 -8 0 -5 -11 -14 -25 -20 -14 -6 -25 -20 -25 -29 0 -17 -62 -53 -90 -53 -6
0 -19 -8 -29 -18 -61 -54 -90 -72 -123 -72 -15 0 -33 -6 -40 -13 -7 -7 -33
-24 -58 -38 -25 -13 -46 -27 -48 -31 -2 -5 -9 -8 -15 -8 -6 0 -20 -9 -32 -20
-37 -37 -80 -70 -91 -70 -7 0 -14 -7 -18 -15 -3 -8 -11 -15 -18 -15 -7 0 -27
-16 -43 -35 -17 -19 -38 -35 -47 -35 -10 0 -18 -6 -18 -14 0 -7 -9 -16 -20
-19 -16 -4 -20 -14 -20 -51 0 -44 1 -46 20 -34 11 7 16 14 10 16 -5 2 -10 12
-10 22 0 13 5 17 20 13 12 -3 29 2 40 12 12 11 30 16 49 13 19 -3 32 0 35 9 3
7 20 13 39 13 19 0 40 7 47 15 7 8 18 15 25 15 7 0 24 9 39 21 14 11 36 21 49
23 13 1 28 6 35 10 7 4 26 5 42 1 24 -5 30 -3 30 10 0 11 5 15 15 11 8 -3 35
4 60 15 30 13 53 18 68 13 12 -5 27 -8 32 -9 6 0 9 -6 8 -12 -1 -6 11 -13 27
-17 27 -5 29 -8 23 -36 -4 -23 -2 -30 7 -28 19 4 42 -43 29 -59 -6 -7 -9 -18
-6 -25 3 -9 7 -6 12 7 5 11 17 30 28 42 17 19 27 22 61 17 23 -4 45 -10 51
-15 13 -12 45 -11 45 1 0 18 82 120 96 120 7 0 11 6 8 14 -4 10 5 16 25 21 17
4 31 13 31 20 0 8 9 17 20 20 11 3 20 11 20 16 0 5 7 9 15 9 8 0 15 6 15 13 0
8 9 22 20 32 11 10 20 26 20 35 0 9 20 38 45 64 25 27 43 52 40 56 -3 4 7 11
20 14 14 4 23 11 20 16 -6 10 55 80 70 80 15 0 48 59 42 74 -8 19 21 56 42 56
22 0 37 27 40 70 0 11 7 20 14 20 8 0 19 11 24 23 8 16 19 23 34 22 27 -2 37
-22 15 -31 -11 -4 -14 -14 -10 -29 3 -13 -1 -28 -10 -38 -9 -8 -16 -22 -16
-30 0 -9 -6 -17 -12 -20 -10 -3 -10 -7 0 -19 10 -13 10 -19 -3 -32 -9 -9 -18
-24 -20 -33 -9 -48 -39 -120 -56 -134 -11 -9 -19 -21 -19 -26 0 -15 -24 -63
-32 -63 -5 0 -8 -9 -8 -20 0 -17 -29 -69 -50 -90 -3 -3 -13 -21 -24 -40 -10
-19 -30 -46 -45 -60 -14 -14 -39 -43 -56 -65 -16 -22 -48 -59 -70 -81 -22 -23
-58 -67 -79 -98 -22 -31 -54 -66 -73 -77 -18 -11 -36 -26 -40 -33 -5 -7 -33
-30 -63 -51 -30 -21 -67 -51 -82 -67 -14 -15 -31 -28 -37 -28 -6 0 -19 -8 -30
-18 -10 -9 -37 -28 -60 -42 -22 -13 -41 -29 -41 -35 0 -7 -11 -17 -24 -23 -14
-6 -36 -21 -49 -32 -14 -12 -47 -32 -74 -45 l-48 -23 437 -1 437 -1 11 55 c6
30 16 57 21 60 5 4 9 18 9 33 -1 26 7 67 30 147 6 22 15 56 20 75 4 19 22 89
40 155 42 161 50 194 56 235 3 19 11 51 18 70 16 41 45 152 52 195 6 35 23
101 34 130 4 11 17 52 28 90 21 70 27 100 42 205 4 30 13 83 19 118 6 35 9 67
6 72 -3 5 1 23 10 40 15 30 18 30 68 25 64 -7 136 -25 142 -35 3 -4 -2 -30
-11 -56 -14 -44 -24 -88 -41 -181 -3 -18 -9 -33 -14 -33 -5 0 -9 -17 -9 -37 0
-37 -19 -106 -33 -119 -4 -4 -7 -22 -7 -40 0 -18 -5 -45 -11 -61 -7 -15 -13
-48 -14 -73 -2 -42 -35 -169 -55 -215 -5 -11 -11 -36 -15 -55 -3 -19 -8 -50
-12 -68 -3 -18 -9 -35 -14 -38 -5 -3 -9 -16 -9 -30 0 -13 -4 -24 -10 -24 -5 0
-10 -13 -10 -29 0 -17 -5 -33 -10 -36 -6 -3 -7 -17 -4 -31 5 -18 1 -26 -12
-31 -33 -12 -39 -27 -37 -85 1 -47 -2 -58 -17 -63 -9 -3 -27 -27 -39 -53 -26
-56 -45 -90 -60 -105 -6 -6 -11 -19 -11 -29 0 -31 -19 -19 -22 15 -3 28 -5 29
-13 12 -4 -11 -22 -33 -38 -49 -25 -24 -29 -34 -24 -67 3 -24 0 -45 -9 -56
-20 -27 -17 -33 15 -33 23 0 29 4 28 18 -2 28 24 82 39 82 17 0 27 -17 13 -22
-6 -2 -17 -20 -24 -41 l-13 -37 718 0 c565 0 719 3 723 13 4 10 6 10 6 0 1
-10 61 -13 266 -13 l265 0 0 1130 c-1 940 -3 1130 -14 1130 -20 0 -43 -60 -27
-70 19 -11 4 -50 -19 -50 -10 0 -20 -5 -22 -11 -6 -18 -48 0 -48 21 0 14 -8
18 -35 18 -19 0 -35 -4 -35 -9 0 -5 10 -9 23 -9 16 0 18 -3 8 -9 -11 -7 -11
-9 0 -14 8 -3 2 -6 -13 -6 -16 -1 -28 4 -28 9 0 6 -6 10 -13 10 -8 0 -20 11
-27 25 -8 15 -20 23 -27 21 -20 -8 -28 22 -11 42 8 9 18 25 21 35 5 14 0 17
-31 17 l-37 0 25 20 c14 11 31 20 38 20 6 0 12 6 12 14 0 16 34 31 50 21 13
-8 13 -38 -1 -52 -6 -6 -8 -16 -5 -22 10 -15 36 -14 36 2 0 7 11 20 24 30 28
21 24 57 -5 57 -14 0 -19 7 -19 25 0 32 8 31 48 -6 17 -16 32 -25 32 -20 0 6
7 11 15 11 24 0 17 -28 -7 -32 -18 -2 -24 -11 -26 -37 -4 -39 9 -51 54 -51 21
0 34 6 38 17 6 15 8 15 16 3 6 -9 10 265 10 727 l0 742 -29 -9 c-16 -4 -61 -4
-101 0 -40 4 -84 5 -99 1 -14 -5 -102 -4 -196 0 -93 4 -174 4 -179 -1 -4 -5 5
-15 22 -24 46 -24 46 -41 -2 -66 l-42 -23 -34 31 c-26 25 -33 38 -32 66 1 34
1 34 -46 40 -26 3 -66 8 -88 12 -27 4 -44 2 -49 -6 -5 -8 -10 -8 -21 1 -10 8
-25 9 -53 2 -28 -8 -44 -7 -62 3 -13 7 -33 14 -44 14 -18 1 -18 2 3 10 27 11
29 36 2 50 -19 10 -55 -1 -71 -23 -3 -4 -82 -10 -175 -13 -131 -4 -188 -1
-245 11 -41 8 -109 16 -150 17 -41 1 -64 4 -52 6 27 4 47 55 32 83 -12 22 -11
22 -44 7 -25 -11 -29 -18 -25 -52 1 -13 -3 -17 -14 -13 -9 4 -31 -1 -49 -11
-17 -9 -41 -17 -52 -16 -25 0 -75 -23 -75 -36 0 -5 5 -12 11 -15 20 -13 -43
-35 -96 -34 -47 1 -54 4 -59 25 -5 17 -13 24 -32 24 -13 0 -27 7 -31 15 -4 12
-19 16 -57 14 -28 -1 -64 4 -80 10 -16 7 -56 14 -88 17 -32 2 -69 9 -82 14
-13 5 -26 6 -29 3 -5 -4 -273 11 -400 23 -23 2 -59 5 -79 7 -21 1 -38 5 -38 9
0 5 -4 7 -9 5 -16 -4 -101 95 -102 117 0 12 -3 15 -6 9 -7 -18 -93 70 -93 95
0 31 41 88 75 105 21 10 51 13 100 10 111 -7 240 -4 289 7 31 7 54 7 72 0 28
-11 84 1 112 23 9 7 20 3 40 -15 29 -27 125 -47 136 -29 4 5 20 9 36 9 16 -1
40 6 54 15 30 20 63 22 68 5 6 -17 132 -28 398 -33 118 -2 240 -7 270 -12 30
-4 61 -7 67 -6 7 0 10 -3 7 -8 -3 -5 18 -9 45 -9 28 0 51 -4 51 -10 0 -17 28
-11 39 7 7 14 21 18 54 16 38 -1 46 2 57 22 18 34 -1 55 -51 55 -22 0 -39 3
-39 8 0 4 -7 47 -15 96 -14 86 -35 126 -65 126 -6 0 -15 11 -20 24 -12 32 -47
39 -178 32 -65 -3 -135 0 -192 9 -67 11 -101 12 -142 4 -63 -12 -186 -9 -210
5 -12 7 -33 6 -67 -3 -28 -7 -55 -10 -60 -6 -6 3 -20 0 -31 -7 -18 -11 -23
-10 -33 3 -19 24 -50 28 -241 30 -142 1 -180 -1 -187 -12 -6 -10 -9 -10 -9 -2
0 7 -25 20 -55 28 -30 9 -57 21 -60 26 -4 5 -15 9 -26 9 -19 0 -20 6 -17 65
l3 65 37 0 c53 0 68 9 68 39 0 23 -19 69 -20 48 0 -5 -7 -2 -15 7 -8 8 -15 32
-15 55 0 22 -5 43 -10 46 -13 8 -12 177 2 233 7 30 17 44 32 47 31 8 358 -1
379 -9 14 -7 17 -21 17 -78 0 -76 -7 -95 -54 -143 -17 -18 -39 -42 -48 -54
-18 -22 -68 -29 -68 -10 0 6 -14 9 -32 7 -31 -3 -33 -5 -30 -36 1 -18 -2 -41
-7 -50 -7 -12 -1 -28 20 -59 34 -48 26 -47 252 -43 60 1 103 -3 111 -10 14
-11 202 -19 607 -27 160 -3 208 -1 217 9 5 7 13 74 16 148 6 138 18 368 34
610 5 74 10 149 10 165 1 17 6 91 11 165 19 276 30 494 25 502 -3 4 0 45 6 90
6 46 15 184 20 308 5 124 15 289 21 367 9 114 9 146 -1 158 -10 12 -41 15
-164 15 -105 0 -156 -4 -164 -12 -8 -8 -12 -48 -12 -115 0 -132 -14 -203 -41
-203 -19 0 -20 7 -18 154 2 154 2 155 -25 186 -14 17 -26 40 -26 51 0 37 23
39 436 48 35 1 32 -14 54 251 5 63 14 162 19 220 5 58 7 108 5 112 -3 5 -1433
8 -3177 8 l-3172 -1 25 -20z m370 -29 c0 -5 -4 -10 -10 -10 -5 0 -10 5 -10 10
0 6 5 10 10 10 6 0 10 -4 10 -10z m578 -38 c6 -18 -15 -14 -22 4 -4 10 -1 14
6 12 6 -2 14 -10 16 -16z m-393 -32 c4 -6 11 -8 16 -5 5 4 12 -2 16 -12 4 -10
13 -24 21 -32 12 -13 12 -16 -2 -26 -9 -7 -16 -20 -16 -29 0 -9 -8 -16 -20
-16 -13 0 -20 7 -20 20 0 11 -7 23 -15 27 -19 7 -48 60 -40 73 8 13 52 13 60
0z m1145 -104 c0 -16 -14 -36 -26 -36 -14 0 -19 22 -7 33 7 8 33 10 33 3z
m-392 -127 c12 0 10 -3 -6 -10 -25 -10 -42 -5 -42 13 0 5 7 7 16 4 9 -3 23 -6
32 -7z m142 -19 c0 -5 -8 -10 -17 -10 -15 0 -16 2 -3 10 19 12 20 12 20 0z
m56 -15 c9 -8 11 -15 6 -15 -5 0 -15 7 -22 15 -7 8 -9 15 -6 15 4 0 14 -7 22
-15z m721 -77 c-2 -13 -4 -3 -4 22 0 25 2 35 4 23 2 -13 2 -33 0 -45z m90 40
c-3 -8 -6 -5 -6 6 -1 11 2 17 5 13 3 -3 4 -12 1 -19z m-1030 -50 c-3 -7 -5 -2
-5 12 0 14 2 19 5 13 2 -7 2 -19 0 -25z m-47 2 c0 -5 -7 -10 -16 -10 -8 0 -12
5 -9 10 3 6 10 10 16 10 5 0 9 -4 9 -10z m1072 -62 c-9 -9 -12 -7 -12 12 0 19
3 21 12 12 9 -9 9 -15 0 -24z m-939 15 c-7 -2 -19 -2 -25 0 -7 3 -2 5 12 5 14
0 19 -2 13 -5z m844 -185 c-2 -18 -4 -4 -4 32 0 36 2 50 4 33 2 -18 2 -48 0
-65z m2978 72 c4 -6 10 -8 15 -5 5 3 20 1 34 -5 24 -9 26 -15 26 -64 0 -35 -5
-58 -15 -66 -8 -7 -15 -8 -15 -3 0 6 -8 20 -19 31 -14 17 -30 22 -68 22 -27 0
-53 -4 -58 -9 -8 -7 -113 -20 -170 -21 -31 0 -110 16 -107 23 1 4 2 14 2 22 0
9 14 16 38 20 20 3 57 12 82 20 51 17 123 20 149 5 13 -7 27 -3 52 15 39 27
45 29 54 15z m-2975 -150 c0 -5 -4 -10 -10 -10 -5 0 -10 5 -10 10 0 6 5 10 10
10 6 0 10 -4 10 -10z m-10 -67 c0 -19 -3 -24 -10 -17 -6 6 -8 18 -4 27 9 24
14 21 14 -10z m-1770 -78 c0 -8 -7 -15 -15 -15 -16 0 -20 12 -8 23 11 12 23 8
23 -8z m4808 -16 c-2 -32 -38 -64 -38 -34 0 8 5 15 10 15 6 0 10 11 10 25 0
14 5 25 10 25 6 0 9 -14 8 -31z m-3497 -25 c8 -10 7 -21 -5 -45 -9 -18 -16
-54 -16 -80 0 -29 -5 -49 -12 -52 -9 -2 -13 -37 -14 -123 -2 -123 -7 -162 -26
-198 -7 -12 -13 -41 -15 -65 -1 -24 -8 -48 -15 -53 -10 -6 -10 -8 0 -8 6 0 12
-9 12 -20 0 -11 -7 -20 -15 -20 -14 0 -55 -34 -55 -45 0 -3 7 -5 15 -5 8 0 17
-12 20 -27 4 -16 11 -36 16 -46 12 -22 -5 -57 -29 -58 -10 0 -12 -3 -4 -6 14
-6 16 -49 2 -58 -5 -3 -10 1 -10 9 0 9 -6 16 -14 16 -8 0 -16 6 -18 14 -5 22
-48 1 -48 -24 0 -27 -25 -36 -45 -16 -23 23 -35 20 -35 -8 0 -14 -4 -27 -9
-31 -6 -3 -9 -15 -8 -26 1 -19 2 -19 14 -2 11 15 17 15 33 5 11 -6 32 -12 48
-12 15 0 34 -6 41 -12 10 -11 11 -10 6 4 -4 11 0 18 14 23 12 3 21 11 21 18 0
7 3 8 10 1 9 -9 13 -118 8 -214 l-3 -45 -95 -2 c-52 -1 -121 -4 -152 -7 -70
-6 -84 5 -91 71 -8 69 -3 326 6 341 5 7 3 12 -3 12 -8 0 -9 7 -5 18 11 25 7
65 -8 74 -9 6 -9 10 0 16 14 9 20 83 28 337 3 99 9 191 14 205 5 14 15 47 23
73 7 27 18 53 25 59 7 5 72 12 145 15 73 3 134 7 136 8 11 9 103 0 113 -11z
m3328 -300 c2 -2 1 -10 -2 -19 -11 -27 -77 -13 -77 16 0 16 62 18 79 3z m114
-28 c7 -18 -3 -56 -14 -56 -5 0 -18 9 -30 21 -16 16 -18 23 -8 35 15 18 45 18
52 0z m635 -114 c2 -7 -3 -12 -12 -12 -9 0 -16 7 -16 16 0 17 22 14 28 -4z
m-2679 -173 c24 -26 33 -30 62 -24 26 5 47 0 86 -19 28 -14 59 -26 69 -26 10
0 28 -12 41 -26 20 -23 52 -26 38 -3 -4 5 -2 9 4 9 5 0 13 -5 16 -10 4 -6 10
-8 15 -5 5 3 11 1 15 -5 3 -5 23 -14 45 -20 24 -6 41 -18 45 -30 4 -11 15 -20
25 -20 28 0 32 -14 9 -34 -19 -16 -22 -16 -39 -1 -15 13 -19 13 -29 2 -6 -8
-9 -22 -5 -31 5 -14 -2 -16 -51 -16 -31 0 -65 -5 -76 -11 -11 -6 -61 -10 -110
-10 -76 0 -94 -4 -110 -20 -23 -23 -49 -25 -49 -4 0 8 -7 15 -15 15 -17 0 -20
-16 -5 -25 6 -4 -8 -23 -30 -43 -32 -30 -40 -46 -44 -81 -3 -24 -10 -49 -16
-55 -5 -5 -10 -18 -10 -28 0 -10 -6 -18 -14 -18 -9 0 -14 -12 -14 -37 0 -21
-5 -39 -11 -41 -14 -5 -15 -42 -1 -42 6 0 10 -12 10 -28 0 -24 6 -30 48 -45
57 -21 114 -70 106 -92 -5 -11 0 -15 17 -15 31 0 51 -13 47 -30 -2 -8 6 -16
17 -18 11 -2 22 -7 25 -11 10 -13 93 -51 110 -51 11 0 22 -4 25 -10 3 -5 17
-10 30 -10 13 0 27 -4 30 -10 3 -5 39 -10 80 -10 41 0 77 5 80 10 3 6 19 10
36 10 16 0 29 4 29 8 0 5 23 14 51 21 29 8 60 24 72 37 15 18 23 21 34 13 9
-8 13 -8 13 -1 0 6 6 17 13 24 29 30 57 77 57 97 0 12 8 25 18 28 9 4 20 11
25 17 10 15 47 -30 47 -57 0 -11 9 -39 19 -61 24 -52 31 -86 41 -221 11 -142
3 -230 -24 -272 -12 -18 -26 -33 -31 -33 -6 0 -27 -16 -46 -35 -33 -31 -39
-34 -69 -25 -18 5 -43 7 -54 4 -12 -3 -48 3 -81 12 -33 9 -74 19 -92 21 -17 3
-38 12 -46 22 -20 23 -41 112 -28 120 5 4 12 18 15 33 7 42 -13 52 -91 42 -38
-4 -88 -8 -113 -9 -25 0 -55 -6 -67 -13 -15 -8 -23 -9 -23 -2 0 5 -4 10 -10
10 -5 0 -7 -7 -4 -15 4 -9 0 -15 -10 -15 -9 0 -16 -3 -16 -7 -1 -5 -24 -24
-52 -43 -28 -19 -65 -47 -81 -63 -15 -15 -40 -30 -54 -33 -13 -4 -27 -13 -30
-20 -3 -8 -12 -14 -20 -14 -8 0 -28 -9 -43 -20 -16 -11 -38 -19 -51 -18 -45 6
-128 110 -100 127 7 5 11 19 9 31 -4 28 -33 35 -67 17 -21 -10 -25 -9 -35 7
-6 11 -18 27 -26 35 -21 23 -36 58 -48 111 -6 25 -16 66 -21 92 -14 58 -14
226 -2 299 6 30 12 90 14 134 7 127 32 166 223 343 8 8 25 11 42 8 21 -5 33 0
55 23 24 26 29 41 34 103 3 40 5 83 4 96 -1 17 5 22 24 22 13 0 27 5 30 10 11
18 36 10 64 -21z m2046 -366 c-1 -27 -3 -81 -4 -120 l-1 -73 -145 0 -145 0 0
29 c0 17 4 32 9 36 5 3 13 20 16 38 4 17 17 49 29 69 17 31 29 39 68 48 26 5
53 7 60 5 7 -3 27 -1 43 4 65 20 73 16 70 -36z m380 37 c67 0 85 -3 102 -20
20 -18 21 -27 16 -117 -3 -54 -8 -100 -10 -103 -11 -12 -423 3 -444 15 -15 10
-9 133 7 146 8 6 14 20 14 31 0 10 4 17 9 14 5 -3 7 -14 4 -24 -2 -10 5 -26
16 -36 17 -15 23 -16 35 -6 14 10 13 15 0 35 -14 22 -13 24 13 43 37 26 60 32
112 26 24 -2 81 -4 126 -4z m-5175 -80 c0 -5 -4 -10 -10 -10 -5 0 -10 5 -10
10 0 6 5 10 10 10 6 0 10 -4 10 -10z m5548 -13 c17 -14 16 -122 -2 -140 -11
-10 -36 -13 -96 -11 -117 4 -120 6 -120 64 0 69 21 91 95 99 66 7 103 4 123
-12z m-5552 -62 c-3 -8 -1 -16 5 -19 5 -2 4 -3 -3 -2 -7 1 -15 13 -16 25 -3
16 0 21 8 16 6 -4 9 -13 6 -20z m-636 -95 c0 -5 -5 -10 -11 -10 -5 0 -7 5 -4
10 3 6 8 10 11 10 2 0 4 -4 4 -10z m5417 -37 c9 -22 8 -35 -5 -281 -5 -107
-13 -197 -17 -200 -7 -8 -397 -3 -405 4 -2 3 -7 29 -10 57 -6 60 13 142 41
173 11 11 19 26 19 32 0 6 7 20 16 31 23 26 44 89 44 130 0 65 16 71 172 71
123 0 139 -2 145 -17z m411 1 c87 -6 92 -7 98 -30 4 -14 3 -44 0 -67 -4 -23
-11 -116 -16 -207 -5 -91 -12 -173 -16 -184 -7 -18 -18 -18 -217 -13 -125 3
-213 9 -220 16 -13 13 -15 109 -5 301 9 174 12 187 36 192 23 5 224 0 340 -8z
m-4358 -14 c12 -8 9 -10 -12 -10 -16 0 -28 5 -28 10 0 13 20 13 40 0z m4577
-46 c17 -17 1 -26 -33 -20 -32 6 -47 25 -32 43 11 13 39 4 65 -23z m-4175 -21
c0 -21 0 -45 -1 -53 -2 -8 -2 -46 -2 -84 1 -45 -3 -76 -13 -91 -11 -17 -12
-31 -4 -69 11 -50 6 -178 -10 -258 -5 -27 -5 -48 -1 -48 10 0 1 -83 -12 -118
-13 -35 -47 -12 -55 38 -4 22 -13 45 -20 51 -15 13 -19 44 -5 34 15 -9 24 35
10 51 -9 11 -9 18 -2 22 11 8 24 64 29 127 1 22 5 74 9 115 3 41 7 107 10 145
2 39 9 90 14 115 6 25 10 48 11 53 0 4 9 7 20 7 16 0 20 -7 22 -37z m-229 1
c12 -12 -6 -34 -29 -34 -23 0 -23 1 -6 19 19 21 26 24 35 15z m798 -33 c-20
-36 -13 -132 12 -176 18 -32 29 -41 56 -43 l33 -3 -6 38 c-8 51 2 64 55 68 58
4 69 -7 69 -71 0 -30 4 -54 8 -54 4 0 9 -12 10 -26 2 -25 32 -67 32 -44 0 7 6
6 15 -4 8 -8 15 -20 15 -26 0 -7 8 -25 17 -41 15 -26 16 -31 3 -39 -11 -7 -12
-13 -2 -35 7 -14 12 -61 12 -103 -1 -70 -2 -75 -15 -58 -8 11 -15 30 -15 42 0
33 -9 35 -70 14 -84 -30 -95 -27 -161 39 -32 32 -59 63 -59 69 0 15 -38 83
-56 102 -12 12 -14 12 -14 -3 0 -26 -19 -20 -30 9 -6 14 -17 32 -25 40 -17 17
-21 74 -5 74 6 0 10 9 10 20 0 11 -4 20 -10 20 -6 0 -10 28 -10 65 0 49 4 67
15 71 8 4 15 18 15 33 l1 26 23 -28 23 -29 18 39 c19 40 38 59 43 43 2 -5 -1
-18 -7 -29z m3690 9 c4 0 12 -20 19 -45 17 -60 6 -128 -26 -160 -28 -28 -32
-88 -9 -119 23 -30 3 -56 -45 -56 -22 0 -40 -4 -40 -10 0 -5 -17 -10 -39 -10
-33 0 -39 3 -43 25 -9 46 3 320 15 345 18 37 26 40 97 35 36 -2 68 -4 71 -5z
m-4531 -182 c0 -10 -74 -11 -83 -2 -3 4 4 19 16 34 l22 28 22 -27 c12 -14 22
-29 23 -33z m-460 -19 c0 -11 -4 -17 -10 -14 -5 3 -10 13 -10 21 0 8 5 14 10
14 6 0 10 -9 10 -21z m427 -131 c-3 -8 -6 -5 -6 6 -1 11 2 17 5 13 3 -3 4 -12
1 -19z m802 -240 c-3 -101 -11 -204 -18 -230 -6 -26 -8 -53 -5 -61 3 -8 0 -18
-6 -22 -7 -5 -10 27 -8 108 1 71 -2 120 -9 128 -17 22 -22 68 -7 62 20 -7 34
38 34 107 0 58 7 90 19 90 3 0 3 -82 0 -182z m3506 122 c10 -8 15 -25 13 -44
-3 -30 -4 -31 -48 -28 -42 4 -115 -12 -134 -30 -6 -4 -18 -8 -28 -8 -10 0 -18
-5 -18 -10 0 -6 -8 -14 -17 -17 -28 -11 -63 -50 -80 -90 -8 -21 -23 -47 -32
-59 -14 -18 -19 -19 -29 -7 -16 17 -32 8 -32 -18 0 -10 -4 -19 -9 -19 -16 0
-34 148 -28 237 4 68 9 90 23 100 26 19 395 13 419 -7z m-4118 -12 c-3 -8 -6
-5 -6 6 -1 11 2 17 5 13 3 -3 4 -12 1 -19z m-597 -28 c0 -5 7 -10 15 -10 17 0
18 -2 9 -24 -3 -9 -15 -16 -25 -16 -22 0 -34 22 -25 45 6 17 26 21 26 5z
m5060 -5 c0 -8 -9 -15 -20 -15 -20 0 -26 11 -13 23 12 13 33 7 33 -8z m-100
-40 c4 -37 0 -45 -20 -45 -29 0 -35 25 -15 56 18 27 32 23 35 -11z m-2292
-118 c2 -11 -3 -17 -17 -17 -23 0 -35 15 -26 31 10 15 39 6 43 -14z m1689
-139 c-3 -8 -6 -5 -6 6 -1 11 2 17 5 13 3 -3 4 -12 1 -19z m-3689 -45 c-3 -19
-53 -29 -63 -12 -11 16 5 29 36 29 24 0 30 -4 27 -17z m1984 -200 c21 -24 30
-77 15 -92 -23 -23 -52 -13 -66 24 -11 31 -10 39 3 60 19 30 28 31 48 8z m-97
-12 c9 -16 -9 -20 -23 -5 -10 12 -10 14 2 14 8 0 17 -4 21 -9z m199 -14 c14
-10 17 -23 14 -50 -2 -20 1 -39 7 -41 5 -2 -7 -5 -27 -5 l-38 -1 0 48 c0 64
10 74 44 49z m130 -42 c36 -36 25 -67 -22 -63 -44 4 -60 27 -44 62 15 33 34
33 66 1z m103 -45 c1 -11 -4 -20 -12 -20 -14 0 -27 24 -18 34 13 13 29 5 30
-14z m2154 10 c6 0 5 -8 -1 -20 -13 -24 -39 -16 -37 11 1 12 7 17 15 14 7 -3
18 -5 23 -5z m-661 -44 c0 -14 -21 -26 -46 -26 -8 0 -14 9 -14 20 0 16 7 20
30 20 19 0 30 -5 30 -14z m-1835 -16 c3 -5 -1 -10 -9 -10 -9 0 -16 5 -16 10 0
6 4 10 9 10 6 0 13 -4 16 -10z m-91 -25 c11 -8 27 -15 36 -15 14 0 50 -32 50
-45 0 -3 -15 -5 -33 -5 -23 0 -41 8 -60 28 -40 42 -35 69 7 37z m1231 -605 c8
-13 -5 -13 -25 0 -13 8 -13 10 2 10 9 0 20 -4 23 -10z m339 -58 l51 -27 -1
-92 c0 -51 -3 -95 -6 -99 -8 -7 -68 27 -68 38 0 4 -9 8 -20 8 -12 0 -17 -5
-14 -14 3 -9 -4 -15 -21 -18 -30 -6 -42 7 -25 27 10 12 9 15 -2 15 -8 0 -19 9
-24 19 -5 11 -43 47 -84 82 -100 83 -103 86 -87 93 6 2 65 3 131 0 105 -4 124
-7 170 -32z m750 -49 c-5 -5 -11 -12 -15 -16 -3 -4 -12 -1 -19 8 -11 13 -9 15
15 15 16 0 24 -3 19 -7z m247 -86 c-10 -9 -11 -8 -5 6 3 10 9 15 12 12 3 -3 0
-11 -7 -18z m549 -7 c0 -5 -4 -10 -10 -10 -5 0 -10 5 -10 10 0 6 5 10 10 10 6
0 10 -4 10 -10z m67 -25 c20 -14 25 -37 11 -50 -3 -4 -17 5 -31 19 -15 14 -31
26 -37 26 -6 0 -8 5 -5 10 9 15 37 12 62 -5z m-487 1 c0 -2 -7 -6 -15 -10 -8
-3 -15 -1 -15 4 0 6 7 10 15 10 8 0 15 -2 15 -4z m-1121 -186 c13 0 34 -8 47
-19 l24 -18 -24 0 c-12 0 -40 -8 -60 -18 -29 -14 -36 -23 -33 -37 6 -23 -17
-35 -37 -19 -7 6 -15 9 -17 7 -2 -3 -9 6 -16 20 -10 22 -8 26 18 39 37 20 37
26 -1 19 -19 -4 -30 -2 -30 5 0 6 5 11 11 11 5 0 8 4 5 9 -4 5 4 7 15 4 14 -4
25 0 31 11 9 16 11 16 27 2 10 -9 28 -16 40 -16z m1397 -32 c-1 -26 -6 -34
-24 -36 -27 -4 -27 1 -5 39 22 38 31 37 29 -3z m-1296 7 c0 -8 -4 -15 -10 -15
-5 0 -10 7 -10 15 0 8 5 15 10 15 6 0 10 -7 10 -15z m1423 -38 c-3 -17 -16
-33 -33 -42 -32 -16 -40 -12 -40 23 0 17 4 23 15 18 11 -4 15 1 15 18 0 14 6
26 13 29 20 8 36 -16 30 -46z m-1452 -41 c-9 -11 -9 -15 0 -18 14 -5 3 -48
-13 -48 -5 0 -17 -8 -26 -18 -10 -9 -14 -13 -10 -9 3 5 4 24 1 43 -5 29 -2 35
21 45 14 7 26 17 26 22 0 6 3 7 6 4 4 -4 2 -13 -5 -21z m1235 -41 c-7 -18 30
-59 45 -49 6 3 4 10 -6 18 -25 18 -8 46 27 46 24 0 29 -3 24 -16 -5 -14 -4
-15 9 -4 9 7 18 10 21 8 9 -9 -7 -58 -19 -58 -6 0 -25 -15 -42 -34 -16 -18
-39 -35 -50 -37 -15 -3 -22 -16 -28 -54 -4 -28 -5 -68 -2 -91 7 -52 -14 -77
-44 -50 -17 15 -17 22 -5 89 7 39 13 93 13 120 1 26 6 47 11 47 6 0 10 7 10
16 0 14 30 63 39 64 2 0 1 -7 -3 -15z m275 -15 c-25 -22 -56 -26 -66 -10 -12
19 6 30 48 30 l42 -1 -24 -19z m412 -31 c27 -31 27 -33 11 -58 -9 -14 -24 -33
-34 -41 -20 -17 -39 -69 -33 -87 3 -9 13 -6 34 9 16 12 32 18 36 14 5 -5 -2
-15 -14 -23 -13 -9 -23 -24 -23 -34 0 -10 -4 -21 -10 -24 -5 -3 -10 -16 -10
-29 0 -56 -83 -76 -88 -20 -3 39 -11 45 -32 24 -26 -26 -50 -26 -50 0 0 11 7
20 15 20 8 0 15 5 15 11 0 7 8 18 18 25 14 11 15 15 3 23 -18 12 -5 31 22 31
28 0 52 39 61 100 7 44 29 90 44 90 4 0 20 -14 35 -31z m-2295 -22 c-2 -15 -9
-21 -20 -19 -19 3 -24 -13 -8 -23 12 -7 40 18 41 37 0 7 6 1 12 -13 7 -14 17
-32 24 -40 6 -8 15 -28 18 -44 7 -28 60 -106 77 -113 4 -2 8 -18 8 -36 0 -27
-4 -32 -27 -36 -61 -9 -232 -2 -293 13 -36 8 -60 15 -55 16 6 1 11 13 12 27 2
47 52 59 63 15 5 -21 7 -22 18 -8 7 8 15 28 17 43 9 57 11 64 31 78 16 13 17
18 7 35 -18 29 -17 71 2 71 8 0 19 9 25 20 9 17 14 18 31 9 13 -6 19 -18 17
-32z m1007 -109 c-4 -13 -9 -30 -11 -40 -6 -22 -33 -31 -40 -14 -6 16 12 56
30 68 20 14 27 8 21 -14z m-1125 -18 c0 -16 -4 -30 -10 -30 -11 0 -14 43 -3
53 11 12 13 8 13 -23z m-2130 -1 c0 -5 -4 -9 -10 -9 -5 0 -10 7 -10 16 0 8 5
12 10 9 6 -3 10 -10 10 -16z m4120 -58 c0 -5 -6 -11 -14 -14 -8 -3 -20 -22
-27 -41 -7 -20 -18 -35 -24 -32 -5 2 -18 -1 -27 -5 -9 -5 -24 -6 -32 -3 -28
11 -17 34 22 51 20 8 41 22 45 29 5 8 12 12 17 9 5 -3 11 -1 15 5 8 12 25 13
25 1z m-4140 -11 c0 -5 -2 -10 -4 -10 -3 0 -8 5 -11 10 -3 6 -1 10 4 10 6 0
11 -4 11 -10z m1980 -10 c0 -5 -4 -10 -10 -10 -5 0 -10 5 -10 10 0 6 5 10 10
10 6 0 10 -4 10 -10z m-1965 -20 c3 -5 1 -10 -4 -10 -6 0 -11 5 -11 10 0 6 2
10 4 10 3 0 8 -4 11 -10z m3602 -16 c-3 -3 -12 -4 -19 -1 -8 3 -5 6 6 6 11 1
17 -2 13 -5z m1089 -32 c-15 -15 -16 -15 -16 5 0 12 6 23 13 26 19 6 21 -13 3
-31z m-766 13 c0 -9 -9 -15 -22 -15 -22 1 -23 1 -4 15 25 19 26 19 26 0z
m-2803 -1 c-3 -3 -12 -4 -19 -1 -8 3 -5 6 6 6 11 1 17 -2 13 -5z m3003 -8 c0
-20 -17 -36 -38 -36 -24 0 -25 0 -7 20 16 17 45 28 45 16z m190 -75 c0 -23
-16 -36 -25 -21 -9 14 1 40 15 40 5 0 10 -9 10 -19z m210 -67 c0 -8 -4 -14
-10 -14 -24 0 -6 -20 35 -40 44 -21 45 -23 45 -71 0 -34 -4 -49 -13 -49 -7 0
-20 -6 -29 -12 -14 -11 -15 -21 -6 -71 7 -42 13 -56 21 -48 23 23 38 12 32
-23 -4 -20 -2 -36 4 -40 14 -9 48 10 77 43 19 21 25 23 33 12 15 -23 41 4 35
35 -3 16 3 35 16 51 13 17 18 33 14 49 -5 18 -1 26 12 30 11 4 27 14 36 21 10
9 22 12 30 7 7 -5 19 -9 26 -10 25 -4 26 -14 4 -36 -17 -17 -24 -19 -36 -9
-12 10 -17 9 -25 -8 -18 -33 -14 -53 9 -46 23 7 23 7 9 -33 -5 -16 -19 -32
-30 -35 -22 -6 -26 -27 -4 -27 8 0 15 5 15 11 0 8 5 8 15 -1 18 -15 21 -110 4
-110 -6 0 -13 9 -16 20 -6 21 -28 26 -52 11 -7 -5 -10 -14 -7 -20 4 -6 -4 -25
-18 -42 -14 -17 -26 -37 -26 -44 0 -8 -13 -23 -30 -35 l-30 -21 -9 23 c-5 13
-6 38 -3 57 4 28 2 33 -11 28 -9 -3 -19 -2 -22 3 -9 14 -41 -5 -61 -36 -15
-22 -15 -26 -1 -37 8 -7 17 -29 19 -49 4 -36 3 -38 -46 -59 -45 -19 -51 -20
-61 -5 -7 9 -21 16 -31 16 -11 0 -15 4 -9 8 6 4 10 18 11 32 2 37 14 59 29 54
19 -8 55 14 55 32 0 8 6 27 14 42 20 39 10 122 -15 122 -10 0 -21 -5 -25 -11
-5 -8 -30 -9 -80 -5 l-74 7 0 -51 c0 -32 4 -49 10 -45 6 3 10 -1 10 -9 0 -9
-5 -15 -11 -14 -12 3 -22 -13 -36 -57 -6 -19 -15 -29 -25 -27 -9 1 -18 -4 -22
-13 -3 -8 -14 -15 -23 -15 -21 0 -51 -31 -46 -46 2 -5 -2 -18 -9 -27 -11 -15
-17 -16 -45 -5 -18 7 -33 16 -33 21 0 4 -4 6 -10 2 -5 -3 -7 -12 -3 -20 3 -8
0 -15 -7 -15 -7 0 -3 -9 10 -20 14 -12 38 -20 59 -20 44 0 73 -16 53 -29 -11
-7 -11 -9 0 -13 18 -7 208 -1 236 7 18 6 21 4 16 -9 -7 -17 11 -22 21 -6 3 6
17 10 31 10 14 0 27 7 30 15 10 25 24 17 24 -14 0 -26 3 -29 46 -35 26 -3 62
-6 80 -6 18 0 37 -6 41 -14 9 -16 63 -10 63 6 0 6 14 -4 32 -21 25 -25 38 -30
58 -26 26 6 27 5 29 -52 1 -31 8 -64 14 -72 9 -11 9 -15 0 -18 -7 -3 -13 -11
-13 -20 0 -8 -13 -33 -29 -56 -15 -23 -31 -53 -34 -67 -3 -14 -11 -41 -19 -60
-11 -30 -17 -35 -40 -32 -32 4 -33 9 -13 36 8 11 15 27 15 35 0 14 -1 14 -10
1 -7 -12 -10 -8 -10 15 0 24 3 27 11 15 7 -10 8 21 5 104 -5 119 -10 144 -22
112 -5 -14 -9 -15 -15 -4 -7 10 -9 9 -9 -5 0 -14 -5 -17 -19 -12 -11 3 -22 1
-26 -5 -5 -7 -20 -9 -41 -5 -40 7 -43 -3 -9 -35 23 -21 26 -22 42 -8 10 9 27
18 38 20 26 4 32 -34 10 -68 -14 -22 -14 -25 0 -30 9 -4 15 -18 15 -36 0 -25
-2 -28 -14 -19 -12 10 -19 8 -38 -11 -17 -17 -35 -23 -73 -24 -59 -1 -135 -21
-135 -34 0 -6 14 -10 30 -10 17 0 30 -5 30 -11 0 -13 47 -4 91 18 29 15 32 14
60 -13 28 -26 40 -52 19 -39 -6 3 -13 -1 -16 -10 -6 -14 -24 -16 -127 -14 -66
2 -139 7 -163 12 -38 9 -40 11 -27 27 9 10 25 16 37 14 20 -4 20 -4 1 5 -24
12 -68 14 -61 3 6 -9 -15 -36 -31 -39 -7 -2 -10 4 -7 12 4 11 -1 15 -17 15
-13 0 -33 7 -43 15 -11 8 -25 15 -30 15 -6 -1 0 -7 13 -14 34 -19 13 -27 -40
-14 -24 5 -78 11 -119 13 -41 1 -86 5 -100 8 -88 22 -181 38 -295 52 -150 18
-244 33 -258 42 -10 6 -8 84 9 370 8 128 10 130 90 118 37 -5 44 -4 44 10 0 9
11 31 25 49 28 37 32 68 11 85 -10 8 -14 34 -14 81 0 70 0 70 28 70 30 0 34 6
54 82 18 65 5 82 -32 43 -15 -16 -31 -38 -35 -47 -4 -11 -17 -18 -32 -18 -20
0 -25 5 -26 28 0 26 -1 26 -9 5 -13 -33 -29 -28 -46 12 -19 46 -18 62 6 92 15
20 19 35 14 59 -6 31 -4 33 31 43 20 5 43 7 51 4 19 -7 16 -42 -7 -78 -29 -46
-32 -56 -22 -66 10 -10 73 37 73 56 0 17 38 55 55 55 8 0 15 -7 15 -16 0 -13
3 -14 14 -5 8 7 38 13 68 14 29 2 64 9 78 16 13 8 58 16 99 18 42 2 77 6 79 8
2 2 17 -1 32 -7 33 -11 31 -43 -2 -34 -23 5 -46 -15 -67 -56 -9 -18 -22 -28
-36 -28 -20 0 -21 -5 -19 -52 1 -29 0 -47 -3 -40 -2 6 -11 12 -18 12 -7 0 -15
5 -17 12 -6 18 -27 0 -42 -37 -10 -22 -24 -37 -40 -41 -32 -8 -55 5 -32 18 24
14 19 28 -10 28 -14 0 -23 4 -19 9 3 6 -4 9 -16 8 -23 -2 -44 -31 -33 -48 4
-6 2 -14 -4 -18 -6 -3 -12 -20 -14 -36 -3 -28 -1 -30 35 -33 20 -2 37 -7 37
-13 0 -5 0 -12 0 -16 0 -8 -4 -9 -35 -12 -8 0 -15 -8 -15 -16 0 -8 -9 -19 -20
-25 -24 -13 -27 -58 -5 -66 10 -4 15 -20 15 -44 0 -48 16 -60 32 -25 6 14 22
28 35 30 13 3 34 7 47 10 34 7 56 -4 56 -26 0 -10 4 -19 9 -19 15 0 33 29 34
53 0 15 13 31 43 50 24 16 44 36 44 46 0 37 29 61 76 61 40 0 44 -2 35 -18 -5
-10 -21 -24 -35 -31 -31 -17 -50 -65 -32 -80 7 -6 16 -7 21 -3 4 4 5 -5 3 -20
-5 -26 -3 -28 32 -28 21 0 43 7 50 15 7 8 20 15 29 15 9 0 22 9 29 21 7 11 19
18 27 15 18 -7 31 12 17 26 -7 7 -5 19 4 36 8 15 14 39 14 54 0 15 7 33 15 40
9 7 22 18 29 25 14 12 26 8 26 -9 0 -5 -4 -6 -10 -3 -5 3 -10 2 -10 -4 0 -15
21 -25 29 -14 3 6 20 14 36 20 33 11 45 44 25 68 -7 8 -9 26 -6 40 4 14 3 25
-2 25 -4 0 -13 12 -20 28 l-12 27 4 -27 c2 -16 -1 -28 -5 -28 -5 0 -9 13 -9
29 0 16 -2 44 -5 62 -5 29 -4 30 4 12 14 -30 35 -29 49 2 16 34 15 35 -8 35
-11 0 -20 4 -20 9 0 5 17 9 37 8 21 -1 38 4 41 11 5 16 22 5 22 -14z m-1092
-13 c3 -8 -1 -12 -9 -9 -7 2 -15 10 -17 17 -3 8 1 12 9 9 7 -2 15 -10 17 -17z
m82 -6 c0 -10 -10 -15 -30 -15 -47 0 -35 27 13 29 9 1 17 -6 17 -14z m739 -15
c4 0 5 -19 2 -42 -4 -29 -11 -43 -21 -43 -11 0 -15 13 -16 48 -2 39 1 47 13
43 8 -3 18 -6 22 -6z m-1019 -29 c0 -3 -7 -15 -15 -25 -13 -17 -15 -17 -21 -3
-9 25 3 48 21 41 8 -3 15 -9 15 -13z m1570 -21 c0 -16 -4 -30 -10 -30 -11 0
-14 43 -3 53 11 12 13 8 13 -23z m178 -102 c-4 -29 -38 -38 -38 -10 0 22 8 32
27 32 9 0 13 -8 11 -22z m-38 -37 c0 -12 -39 -21 -45 -11 -3 5 2 13 12 19 18
10 33 6 33 -8z m-333 -7 c2 -6 -5 -14 -16 -17 -24 -6 -31 0 -24 19 6 17 34 15
40 -2z m-1117 -34 c0 -20 -23 -43 -33 -33 -9 8 -9 48 -1 56 11 11 34 -5 34
-23z m473 -23 c9 -25 -43 -77 -77 -77 -14 0 -26 2 -26 4 0 8 26 52 49 83 25
33 39 31 54 -10z m-748 -17 c3 -5 2 -10 -4 -10 -5 0 -13 5 -16 10 -3 6 -2 10
4 10 5 0 13 -4 16 -10z m-3031 -35 c3 -8 1 -15 -4 -15 -6 0 -10 7 -10 15 0 8
2 15 4 15 2 0 6 -7 10 -15z m4316 -52 c-1 -16 -29 -45 -39 -39 -5 4 -12 2 -16
-4 -9 -15 -25 -12 -25 4 0 8 9 18 20 21 11 3 20 11 20 16 0 5 9 9 20 9 11 0
20 -3 20 -7z m-560 -42 c0 -11 -5 -23 -11 -27 -15 -9 -33 12 -26 30 9 23 37
20 37 -3z m285 9 c3 -5 -3 -10 -14 -10 -14 0 -23 -9 -27 -25 -9 -35 -34 -32
-34 3 0 16 3 32 7 35 10 11 61 8 68 -3z m-635 -20 c0 -5 -9 -19 -20 -30 l-20
-20 0 23 c0 13 3 27 7 30 10 11 33 8 33 -3z m-50 -39 c0 -5 -7 -11 -15 -15 -9
-3 -15 0 -15 9 0 8 7 15 15 15 8 0 15 -4 15 -9z m1095 -111 c3 -5 1 -10 -4
-10 -6 0 -11 5 -11 10 0 6 2 10 4 10 3 0 8 -4 11 -10z m-151 -66 c-6 -3 -9
-16 -6 -29 2 -14 0 -25 -6 -25 -15 0 -24 17 -13 25 6 3 8 12 4 20 -3 10 1 15
13 14 11 0 14 -3 8 -5z m-1354 -97 c0 -19 -4 -27 -12 -24 -7 2 -13 8 -14 13 0
5 -4 17 -8 27 -5 9 -5 24 -2 34 6 14 8 14 21 -3 8 -10 15 -32 15 -47z m-54
-62 c-8 -8 -17 -15 -20 -15 -3 0 -3 7 0 15 4 8 13 15 21 15 12 0 12 -2 -1 -15z
m1985 -43 c-6 -2 -11 -10 -11 -18 0 -8 -3 -14 -7 -14 -25 -1 -33 -17 -22 -48
8 -25 8 -40 -1 -62 -21 -50 -31 -34 -29 48 2 88 12 124 32 116 8 -3 20 3 28
12 13 16 14 15 17 -7 2 -13 -1 -25 -7 -27z m-104 -94 c-3 -8 -6 -5 -6 6 -1 11
2 17 5 13 3 -3 4 -12 1 -19z m19 -205 c-11 -11 -17 4 -9 23 7 18 8 18 11 1 2
-10 1 -21 -2 -24z m-3626 20 c0 -5 -4 -15 -10 -23 -11 -18 -25 -7 -17 15 6 15
27 21 27 8z m2444 -80 c-18 -19 -26 -16 -19 7 4 12 2 20 -5 20 -6 0 -8 5 -5
11 5 7 13 4 24 -8 14 -14 15 -20 5 -30z m1077 -14 c9 -22 6 -34 -15 -68 -26
-41 -34 -81 -17 -81 5 0 12 -13 16 -30 4 -16 11 -30 16 -30 5 0 9 -7 9 -16 0
-10 -6 -14 -14 -11 -11 4 -13 1 -9 -10 4 -11 2 -14 -5 -9 -7 4 -13 28 -13 54
-1 26 -3 39 -6 30 -2 -10 -11 -18 -20 -18 -11 0 -14 -8 -11 -28 4 -26 1 -29
-24 -29 -27 0 -38 19 -18 32 5 3 7 19 3 35 -3 19 -1 30 6 30 6 0 11 5 11 11 0
6 9 18 20 27 14 12 17 25 13 44 -3 15 -10 25 -15 22 -5 -4 -8 6 -6 22 4 38 28
44 29 7 1 -24 2 -22 11 12 15 63 20 73 25 50 2 -11 9 -32 14 -46z m-879 32
c13 -5 36 -12 52 -16 32 -7 32 9 1 -170 -9 -55 -26 -129 -37 -165 -11 -36 -22
-87 -25 -115 -3 -27 -10 -55 -14 -61 -5 -6 -10 -33 -10 -60 -1 -27 -6 -56 -10
-64 -9 -19 -24 -77 -40 -150 -6 -30 -15 -63 -20 -72 -5 -10 -9 -27 -9 -37 0
-11 -4 -23 -10 -26 -5 -3 -10 -18 -10 -33 0 -23 -9 -56 -36 -134 -4 -10 -10
-16 -14 -13 -5 3 -11 -13 -15 -35 -5 -30 -11 -40 -23 -38 -10 2 -17 -4 -17
-12 0 -8 6 -14 14 -12 17 4 31 -16 24 -34 -4 -11 -10 -11 -26 -2 -12 7 -33 12
-46 12 -13 1 -29 10 -35 21 -6 11 -17 24 -23 28 -19 12 -16 54 7 117 11 30 18
62 15 70 -3 9 2 25 10 36 8 10 14 30 14 44 0 23 -1 24 -13 8 -7 -10 -17 -18
-21 -18 -4 0 -4 8 0 18 4 9 13 53 20 97 33 196 38 221 47 239 8 15 6 21 -8 29
-15 8 -15 12 -3 21 18 14 34 50 47 101 6 22 17 66 26 98 9 32 16 75 16 97 0
21 5 42 10 45 6 3 10 22 10 42 0 20 7 63 16 95 l17 58 48 0 c26 0 58 -4 71 -9z
m758 -52 c0 -5 -4 -9 -8 -9 -5 0 -9 7 -9 15 0 8 4 12 9 9 4 -3 8 -9 8 -15z
m-402 -21 c7 -7 32 -11 58 -9 25 1 52 -3 60 -9 23 -20 17 -58 -12 -73 -20 -10
-27 -23 -30 -50 -2 -20 1 -39 7 -42 17 -11 9 -33 -13 -39 -18 -4 -20 -8 -10
-18 15 -15 16 -100 1 -115 -6 -6 -12 -38 -12 -72 -1 -33 -5 -61 -9 -61 -5 0
-8 -14 -8 -31 0 -46 -20 -172 -31 -191 -5 -10 -9 -29 -9 -44 0 -18 -6 -28 -20
-31 -13 -4 -17 -10 -12 -17 4 -6 7 -20 5 -31 -8 -57 -16 -91 -23 -100 -4 -5
-11 -28 -15 -50 -5 -32 -8 -36 -16 -22 -8 14 -14 15 -30 6 -12 -6 -23 -8 -26
-5 -4 3 -12 1 -19 -5 -10 -8 -11 -5 -1 16 9 20 18 25 35 22 30 -6 42 21 18 39
-16 12 -16 13 1 22 10 6 15 14 10 18 -4 4 -16 -1 -27 -11 -19 -18 -20 -17 -26
13 -4 18 -10 32 -15 32 -13 0 -11 34 3 48 6 6 9 15 5 18 -12 13 -34 -16 -40
-54 -4 -20 -11 -59 -17 -87 -8 -39 -7 -52 3 -63 12 -11 11 -19 -6 -53 -21 -43
-28 -47 -48 -23 -10 12 -10 22 -1 48 7 18 12 40 12 49 0 10 9 57 19 105 11 48
25 114 32 147 6 33 18 87 27 120 14 57 19 80 40 200 5 28 15 64 22 80 7 17 16
66 21 109 5 44 13 84 18 90 5 6 12 29 16 51 4 22 10 44 13 50 4 5 7 13 8 18 1
4 2 9 3 12 2 9 27 5 39 -7z m406 -50 c-11 -18 -23 -6 -22 23 1 31 1 31 14 8 7
-13 10 -27 8 -31z m86 -228 c0 -5 -7 -7 -15 -4 -8 4 -15 8 -15 10 0 2 7 4 15
4 8 0 15 -4 15 -10z m-118 -39 c-5 -3 -12 -15 -15 -26 -4 -18 -5 -18 -6 3 -1
25 21 57 28 40 2 -6 -1 -13 -7 -17z m-23 -105 c9 -11 10 -20 1 -35 -16 -30
-25 -26 -27 14 -3 37 7 44 26 21z m71 -67 c0 -4 -7 -6 -15 -3 -8 4 -15 10 -15
15 0 4 7 6 15 3 8 -4 15 -10 15 -15z m-46 -66 c4 -4 17 -8 29 -8 17 0 23 -7
27 -35 5 -30 6 -32 14 -15 5 11 8 27 7 37 -1 9 3 19 9 23 20 13 15 -64 -6 -80
-14 -10 -15 -48 -2 -61 9 -8 -2 -34 -13 -34 -5 0 -9 9 -9 20 0 11 -4 20 -10
20 -5 0 -10 9 -10 20 0 13 -7 20 -18 20 -15 0 -18 -6 -14 -30 4 -29 -10 -41
-23 -20 -10 16 -19 12 -30 -11 -14 -31 -27 -29 -37 6 -9 32 -1 124 10 109 7
-9 48 -34 56 -34 14 0 14 34 0 45 -10 6 -14 17 -10 23 8 14 19 15 30 5z
m-1039 -123 c3 -5 2 -10 -4 -10 -5 0 -13 5 -16 10 -3 6 -2 10 4 10 5 0 13 -4
16 -10z m-1225 -90 c0 -5 -7 -10 -16 -10 -8 0 -12 5 -9 10 3 6 10 10 16 10 5
0 9 -4 9 -10z m2314 -42 c10 -38 7 -79 -7 -93 -20 -19 -35 -5 -43 41 -4 31 -2
45 11 57 22 23 32 21 39 -5z m-145 -48 c10 5 21 6 25 3 3 -3 6 1 6 10 0 10 7
17 15 17 8 0 15 -6 15 -12 0 -7 3 -24 6 -38 6 -23 5 -23 -7 -8 -20 26 -56 13
-61 -21 -2 -15 2 -33 9 -40 20 -18 15 -33 -9 -29 -15 2 -23 10 -24 23 -1 11
-2 22 -3 25 -9 17 -11 77 -5 99 8 26 8 26 12 -7 3 -27 6 -31 21 -22z m-462
-72 c-3 -8 -6 -5 -6 6 -1 11 2 17 5 13 3 -3 4 -12 1 -19z m560 -10 c-3 -8 -6
-5 -6 6 -1 11 2 17 5 13 3 -3 4 -12 1 -19z m-146 -54 c-9 -38 -9 -38 -10 -7
-1 33 10 74 16 57 2 -6 -1 -28 -6 -50z m171 15 c-2 -8 -5 -30 -5 -49 -3 -53
-22 -32 -22 23 0 37 3 47 15 44 8 -2 13 -10 12 -18z m-505 -81 c-3 -7 -5 -2
-5 12 0 14 2 19 5 13 2 -7 2 -19 0 -25z m319 -15 c-10 -10 -19 5 -10 18 6 11
8 11 12 0 2 -7 1 -15 -2 -18z m146 -22 c2 -13 -3 -26 -9 -28 -9 -3 -13 7 -13
33 0 41 17 37 22 -5z m-105 -7 c-9 -9 -28 6 -21 18 4 6 10 6 17 -1 6 -6 8 -13
4 -17z m-533 -46 c-5 -7 -7 -20 -6 -30 2 -9 -2 -19 -8 -23 -5 -3 -10 -17 -10
-29 0 -13 -7 -29 -15 -36 -19 -16 -19 -9 0 65 22 87 24 90 36 78 7 -7 8 -17 3
-25z m-424 -44 c0 -8 -4 -12 -10 -9 -5 3 -10 10 -10 16 0 5 5 9 10 9 6 0 10
-7 10 -16z m48 -17 c2 -12 -1 -15 -12 -11 -19 7 -22 38 -3 32 6 -3 13 -12 15
-21z m-68 -34 c-1 -18 -18 -35 -24 -24 -4 6 -4 16 -1 21 7 12 25 13 25 3z
m140 -7 c0 -17 -14 -29 -23 -20 -8 8 3 34 14 34 5 0 9 -6 9 -14z m762 -46 c-2
-16 -10 -30 -18 -30 -10 0 -11 6 -3 30 6 17 14 30 18 30 4 0 6 -13 3 -30z
m178 6 c0 -13 -7 -26 -15 -30 -16 -6 -18 -2 -9 32 8 29 24 28 24 -2z m-670
-46 c0 -8 -9 -21 -20 -28 -23 -14 -25 -8 -13 48 6 31 7 32 20 15 7 -11 13 -26
13 -35z m-370 -10 c0 -5 -4 -10 -10 -10 -5 0 -10 5 -10 10 0 6 5 10 10 10 6 0
10 -4 10 -10z m54 -15 c-4 -8 -8 -15 -10 -15 -2 0 -4 7 -4 15 0 8 4 15 10 15
5 0 7 -7 4 -15z m-118 -32 c-10 -10 -19 5 -10 18 6 11 8 11 12 0 2 -7 1 -15
-2 -18z m387 -18 c-7 -21 -13 -19 -13 6 0 11 4 18 10 14 5 -3 7 -12 3 -20z
m657 0 c0 -8 -4 -15 -10 -15 -5 0 -10 -7 -10 -16 0 -8 -4 -13 -10 -9 -6 3 -5
15 2 30 12 28 28 33 28 10z m-1133 -117 c-3 -7 -5 -2 -5 12 0 14 2 19 5 13 2
-7 2 -19 0 -25z"/>
<path d="M1835 5971 c-6 -11 9 -23 19 -14 9 9 7 23 -3 23 -6 0 -12 -4 -16 -9z"/>
<path d="M3858 5382 c-10 -2 -18 -7 -18 -12 0 -5 -9 -17 -19 -27 -13 -12 -17
-23 -12 -32 7 -11 18 -7 50 19 23 18 41 37 41 41 0 10 -22 16 -42 11z"/>
<path d="M2687 5444 c-16 -16 -5 -44 24 -65 39 -28 56 -15 43 33 -7 25 -16 34
-35 36 -13 2 -28 0 -32 -4z"/>
<path d="M2779 5324 c-7 -9 -27 -23 -43 -29 -28 -12 -28 -13 -10 -23 11 -6 33
-12 49 -14 23 -2 29 2 36 24 4 17 2 33 -5 43 -11 16 -13 15 -27 -1z"/>
<path d="M5120 3125 c0 -8 4 -15 10 -15 5 0 7 7 4 15 -4 8 -8 15 -10 15 -2 0
-4 -7 -4 -15z"/>
<path d="M5050 3100 c0 -5 5 -10 10 -10 6 0 10 5 10 10 0 6 -4 10 -10 10 -5 0
-10 -4 -10 -10z"/>
<path d="M5067 3066 c-4 -10 0 -12 14 -9 10 3 16 9 13 14 -8 13 -21 11 -27 -5z"/>
<path d="M6720 2740 c0 -7 -7 -9 -15 -6 -20 7 -95 -25 -95 -41 0 -7 7 -13 15
-13 8 0 15 -4 15 -9 0 -5 23 0 50 12 48 20 65 46 40 62 -5 3 -10 1 -10 -5z"/>
<path d="M7542 2438 c-5 -7 -13 -23 -16 -35 -6 -18 -3 -23 10 -23 19 0 54 36
54 57 0 16 -34 17 -48 1z"/>
<path d="M6605 2231 c-3 -5 -1 -12 5 -16 5 -3 10 1 10 9 0 18 -6 21 -15 7z"/>
<path d="M6640 2219 c0 -5 5 -7 10 -4 6 3 10 8 10 11 0 2 -4 4 -10 4 -5 0 -10
-5 -10 -11z"/>
<path d="M6528 2083 c7 -3 16 -2 19 1 4 3 -2 6 -13 5 -11 0 -14 -3 -6 -6z"/>
<path d="M7365 1881 c-4 -7 3 -11 17 -11 l23 -1 -22 -18 c-13 -11 -23 -22 -23
-26 0 -10 75 0 77 10 1 6 -5 9 -14 7 -11 -2 -13 2 -8 17 3 12 2 21 -4 21 -5 0
-16 3 -24 6 -8 3 -18 1 -22 -5z"/>
<path d="M7095 1850 c3 -5 8 -10 11 -10 2 0 4 5 4 10 0 6 -5 10 -11 10 -5 0
-7 -4 -4 -10z"/>
<path d="M7180 1772 c0 -5 14 -9 30 -10 17 0 30 4 30 9 0 5 -13 9 -30 9 -16 0
-30 -4 -30 -8z"/>
<path d="M7500 1750 c-8 -5 -27 -10 -42 -10 -16 0 -28 -4 -28 -10 0 -5 20 -10
44 -10 35 0 45 4 49 20 6 22 0 25 -23 10z"/>
<path d="M6978 1683 c7 -3 16 -2 19 1 4 3 -2 6 -13 5 -11 0 -14 -3 -6 -6z"/>
<path d="M7490 1635 c-14 -16 -10 -18 14 -9 9 3 16 10 16 15 0 14 -16 11 -30
-6z"/>
<path d="M7652 1461 c2 -7 7 -12 11 -12 12 1 9 15 -3 20 -7 2 -11 -2 -8 -8z"/>
<path d="M6660 924 c0 -8 5 -12 10 -9 6 4 8 11 5 16 -9 14 -15 11 -15 -7z"/>
<path d="M6599 928 c-4 -15 -6 -38 -3 -38 2 0 13 9 24 20 l20 20 -20 0 c-11 0
-20 -1 -21 -2z"/>
<path d="M6577 833 c-4 -3 -7 -25 -7 -47 0 -30 3 -37 10 -26 5 8 10 25 10 38
0 26 7 28 32 5 17 -15 18 -15 18 4 0 13 -8 23 -22 27 -29 7 -33 7 -41 -1z"/>
<path d="M6630 545 c-8 -9 -8 -15 -2 -15 12 0 26 19 19 26 -2 2 -10 -2 -17
-11z"/>
<path d="M6555 505 c-3 -8 -7 -22 -10 -31 -3 -9 0 -14 7 -12 6 2 13 16 15 31
4 29 -5 37 -12 12z"/>
<path d="M7214 1406 c-8 -22 3 -33 18 -18 9 9 9 15 0 24 -9 9 -13 7 -18 -6z"/>
<path d="M7200 1351 c0 -6 5 -13 10 -16 6 -3 10 1 10 9 0 9 -4 16 -10 16 -5 0
-10 -4 -10 -9z"/>
<path d="M7220 1169 c0 -17 4 -28 10 -24 6 3 10 17 10 31 0 13 -4 24 -10 24
-5 0 -10 -14 -10 -31z"/>
<path d="M7061 884 c0 -11 3 -14 6 -6 3 7 2 16 -1 19 -3 4 -6 -2 -5 -13z"/>
<path d="M7101 754 c0 -11 3 -14 6 -6 3 7 2 16 -1 19 -3 4 -6 -2 -5 -13z"/>
<path d="M6731 7931 c3 -105 9 -133 24 -121 9 8 14 1 19 -29 6 -39 26 -67 26
-37 0 9 5 16 11 16 5 0 8 4 4 9 -3 6 3 14 12 20 14 8 15 11 3 11 -9 0 -6 6 9
14 30 17 56 14 56 -5 0 -8 -6 -13 -12 -11 -17 3 -16 -6 1 -24 27 -26 36 -15
36 40 0 30 5 58 10 61 6 3 10 13 10 22 0 11 -6 14 -22 10 -46 -12 -67 2 -74
49 l-6 44 -55 0 -54 0 2 -69z"/>
<path d="M6898 7993 c7 -3 16 -2 19 1 4 3 -2 6 -13 5 -11 0 -14 -3 -6 -6z"/>
<path d="M7497 7986 c-7 -17 33 -56 59 -57 10 0 13 -3 7 -6 -20 -7 -17 -109 2
-117 38 -14 -21 -106 -69 -106 -21 0 -64 -39 -160 -145 -36 -39 -39 -61 -14
-92 12 -16 38 -17 38 -3 0 6 14 9 30 8 17 -1 30 -3 30 -5 0 -1 -5 -13 -11 -27
-16 -34 -4 -76 21 -76 13 0 25 -11 33 -27 6 -16 15 -31 20 -34 5 -3 9 -10 10
-15 3 -32 34 -83 62 -104 34 -25 38 -34 38 -100 0 -19 2 -30 4 -24 5 15 74 2
84 -16 4 -8 11 -28 14 -43 4 -19 11 -27 20 -24 23 9 37 -18 29 -58 -7 -40 10
-85 33 -85 12 0 18 25 15 60 -4 31 9 80 21 80 19 0 41 -42 43 -83 1 -30 -1
-35 -12 -26 -20 17 -19 -28 1 -48 24 -23 1 -44 -44 -41 -26 2 -36 -1 -39 -13
-5 -25 47 -41 147 -43 l91 -2 0 643 0 643 -200 0 -200 0 -12 -25 c-7 -16 -17
-24 -26 -20 -7 3 -20 5 -28 5 -20 0 -17 28 4 33 11 3 8 5 -9 6 -15 0 -29 -5
-32 -13z m391 -18 c7 -7 12 -30 12 -51 0 -32 -2 -37 -14 -28 -11 9 -15 6 -18
-19 -3 -21 0 -30 9 -30 8 0 11 -5 8 -10 -4 -6 -1 -18 6 -26 11 -13 10 -18 -4
-26 -10 -5 -15 -14 -12 -19 4 -5 11 -7 16 -4 5 4 9 -3 9 -14 0 -26 -34 -28
-58 -5 -14 15 -14 17 1 26 21 11 22 48 2 48 -8 0 -15 7 -15 15 0 8 4 15 9 15
4 0 12 32 15 70 7 71 12 80 34 58z m-125 -170 c4 -27 0 -52 -9 -70 -8 -15 -14
-30 -14 -33 1 -26 -3 -25 -17 3 -13 27 -14 37 -3 56 7 13 10 30 8 38 -6 15 9
48 21 48 5 0 11 -19 14 -42z m-85 -36 c2 -12 8 -22 13 -22 14 0 10 -22 -7 -45
-13 -17 -16 -18 -24 -5 -6 8 -8 21 -5 28 3 7 -2 15 -10 18 -16 6 -20 35 -8 48
14 13 38 1 41 -22z m-43 -92 c3 -5 2 -10 -4 -10 -5 0 -13 5 -16 10 -3 6 -2 10
4 10 5 0 13 -4 16 -10z m-177 -138 c9 -6 7 -14 -10 -32 -21 -22 -22 -22 -29
-4 -8 24 -1 33 12 14 8 -11 9 -10 4 8 -7 23 1 27 23 14z"/>
<path d="M6937 7954 c-4 -4 -7 -14 -7 -23 0 -11 3 -12 11 -4 6 6 10 16 7 23
-2 6 -7 8 -11 4z"/>
<path d="M7040 7734 c-14 -35 -12 -54 3 -54 18 0 36 35 30 59 -7 28 -21 27
-33 -5z"/>
<path d="M6830 7730 c0 -5 5 -10 11 -10 5 0 7 5 4 10 -3 6 -8 10 -11 10 -2 0
-4 -4 -4 -10z"/>
<path d="M6900 7650 c0 -5 5 -10 11 -10 5 0 7 5 4 10 -3 6 -8 10 -11 10 -2 0
-4 -4 -4 -10z"/>
<path d="M2030 7640 c0 -6 -6 -10 -12 -9 -31 4 -48 -2 -48 -16 0 -17 45 -49
57 -42 10 6 17 77 8 77 -3 0 -5 -5 -5 -10z"/>
<path d="M423 7533 c-6 -16 -14 -45 -18 -66 -6 -36 -5 -38 17 -35 19 2 24 10
28 48 9 76 -5 104 -27 53z"/>
<path d="M880 7545 c0 -9 5 -15 11 -13 6 2 11 8 11 13 0 5 -5 11 -11 13 -6 2
-11 -4 -11 -13z"/>
<path d="M1130 7531 c-7 -18 -22 -32 -37 -36 -27 -6 -62 -35 -44 -35 6 0 11
-4 11 -10 0 -5 -9 -10 -21 -10 -15 0 -19 -4 -15 -16 3 -9 6 -18 6 -20 0 -10
23 -2 55 19 41 26 43 33 13 40 -29 8 -22 14 25 20 21 3 39 7 40 8 1 2 8 14 15
27 15 27 8 42 -17 42 -11 0 -24 -12 -31 -29z"/>
<path d="M975 7320 c-3 -5 1 -10 10 -10 9 0 13 5 10 10 -3 6 -8 10 -10 10 -2
0 -7 -4 -10 -10z"/>
<path d="M6992 7279 c-26 -10 -47 -51 -38 -74 9 -23 27 -14 49 24 23 43 20 61
-11 50z"/>
<path d="M3 7245 c0 -22 2 -30 4 -17 2 12 2 30 0 40 -3 9 -5 -1 -4 -23z"/>
<path d="M407 7242 c-10 -10 -17 -23 -17 -29 0 -19 28 -8 50 20 21 26 21 27 2
27 -10 0 -26 -8 -35 -18z"/>
<path d="M6968 7143 c7 -3 16 -2 19 1 4 3 -2 6 -13 5 -11 0 -14 -3 -6 -6z"/>
<path d="M865 7090 c-3 -6 5 -14 19 -20 14 -5 26 -14 26 -20 0 -5 5 -10 10
-10 6 0 10 7 10 15 0 8 -7 15 -15 15 -8 0 -15 7 -15 15 0 17 -25 20 -35 5z"/>
<path d="M1323 7045 c0 -8 4 -15 9 -15 4 0 8 7 8 15 0 8 -4 15 -8 15 -5 0 -9
-7 -9 -15z"/>
<path d="M7051 6972 c-15 -28 -14 -32 8 -32 27 0 33 13 17 35 -13 18 -14 18
-25 -3z"/>
<path d="M7625 6980 c-9 -15 -1 -23 21 -18 15 3 16 4 1 16 -11 9 -17 10 -22 2z"/>
<path d="M7583 6963 c-7 -3 -13 -11 -13 -18 0 -7 -7 -15 -16 -17 -9 -2 -22
-21 -30 -43 -18 -52 -17 -60 2 -41 23 24 34 19 34 -13 0 -16 5 -31 11 -33 5
-2 11 -12 13 -23 1 -10 9 -21 17 -23 11 -3 11 -2 1 6 -10 7 -10 11 1 21 11 9
13 21 6 49 -14 60 -12 82 8 75 11 -4 14 -3 9 5 -5 8 -2 10 8 6 11 -4 16 0 16
15 0 14 -5 19 -15 15 -8 -4 -15 -2 -15 4 0 12 -21 21 -37 15z"/>
<path d="M7030 6920 c0 -5 5 -10 11 -10 5 0 7 5 4 10 -3 6 -8 10 -11 10 -2 0
-4 -4 -4 -10z"/>
<path d="M94 6875 c-8 -21 4 -35 32 -35 19 0 24 5 24 25 0 20 -5 25 -25 25
-14 0 -28 -7 -31 -15z"/>
<path d="M275 6866 c-24 -18 -13 -46 19 -46 30 0 51 31 34 48 -16 16 -30 15
-53 -2z"/>
<path d="M787 6830 c-19 -18 -14 -50 8 -50 14 0 28 51 17 61 -4 4 -15 -1 -25
-11z"/>
<path d="M6 6805 c-11 -29 -6 -316 5 -309 6 3 9 17 6 30 -4 20 0 24 21 24 25
0 25 -1 6 -15 -10 -8 -14 -15 -8 -15 6 0 17 7 24 15 7 8 20 15 29 15 14 0 14
-2 1 -10 -13 -9 -13 -11 0 -20 21 -14 30 -12 37 6 3 9 0 20 -7 24 -10 6 -8 9
6 13 17 4 17 5 -2 6 -12 0 -24 8 -28 16 -3 8 -9 14 -13 13 -4 -1 -18 2 -31 6
-28 9 -22 37 15 78 25 27 24 48 -3 48 -18 0 -54 58 -47 76 3 8 3 14 0 14 -3 0
-7 -7 -11 -15z"/>
<path d="M7406 6783 c-3 -4 -14 -9 -24 -11 -28 -5 -322 -3 -332 3 -5 3 -11 1
-14 -4 -3 -5 -32 -7 -65 -4 -39 4 -61 2 -66 -6 -4 -7 -4 -15 0 -19 6 -6 319
-16 400 -13 22 1 78 2 125 2 86 -1 118 8 106 28 -5 7 -22 9 -47 5 -29 -5 -44
-2 -58 10 -9 9 -21 13 -25 9z"/>
<path d="M6796 6728 c-36 -13 -18 -28 36 -28 32 0 58 14 46 25 -10 11 -57 12
-82 3z"/>
<path d="M6716 6703 c-4 -5 -13 -8 -18 -8 -6 0 -13 -6 -16 -14 -4 -11 3 -13
28 -7 39 7 44 11 35 25 -7 13 -19 14 -29 4z"/>
<path d="M7098 6593 c-36 -23 -42 -42 -22 -64 21 -23 34 -24 34 -2 0 9 3 13 7
10 3 -4 15 7 25 24 29 48 7 64 -44 32z"/>
<path d="M258 6583 c12 -8 22 -21 22 -28 0 -12 42 -25 82 -25 33 0 14 25 -20
26 -36 1 -49 9 -33 19 6 3 11 1 11 -6 0 -8 4 -8 15 1 24 20 7 30 -48 29 -50 0
-51 -1 -29 -16z"/>
<path d="M980 6580 c-22 -7 -21 -8 13 -9 23 -1 36 3 32 9 -7 11 -10 11 -45 0z"/>
<path d="M7985 6491 c-3 -5 -1 -12 5 -16 5 -3 10 1 10 9 0 18 -6 21 -15 7z"/>
<path d="M807 6463 c-5 -8 -11 -105 -8 -130 2 -25 18 -12 30 25 15 43 11 104
-6 109 -6 2 -13 0 -16 -4z"/>
<path d="M377 6409 c-3 -13 2 -28 14 -40 25 -25 24 -59 -2 -106 -24 -42 -40
-173 -21 -173 5 0 8 -9 5 -20 -6 -21 21 -70 37 -70 6 0 10 11 10 24 0 14 5 37
11 53 7 15 13 53 14 84 1 30 8 65 14 77 17 32 17 143 0 170 -19 30 -74 31 -82
1z"/>
<path d="M7971 6156 c-7 -8 -14 -25 -16 -37 -6 -32 -32 -49 -71 -49 -32 0 -33
-1 -32 -42 1 -49 -12 -151 -21 -158 -10 -8 -41 -80 -41 -95 0 -7 -6 -16 -12
-18 -7 -3 -3 -6 10 -6 26 -1 28 -8 6 -32 -8 -9 -16 -28 -18 -41 -1 -13 -6 -29
-10 -36 -10 -16 6 -15 40 2 27 15 44 13 44 -4 0 -5 -7 -7 -16 -3 -14 5 -15 1
-9 -28 4 -19 10 -36 14 -39 3 -3 7 -15 8 -27 3 -27 -15 -30 -32 -6 -13 17 -35
10 -35 -11 0 -8 11 -13 26 -13 15 0 31 -7 35 -16 5 -8 17 -13 27 -10 25 6 49
-22 27 -31 -9 -3 -25 -1 -35 4 -13 7 -21 7 -25 0 -4 -6 -16 -10 -28 -9 -75 7
-109 -14 -114 -68 -2 -21 -6 -63 -9 -93 -5 -43 -3 -59 9 -68 19 -16 27 3 31
81 2 29 6 59 10 66 11 17 214 17 231 0 20 -20 35 -9 35 26 0 32 -2 35 -29 35
-28 0 -49 15 -38 26 3 3 19 6 35 6 l31 1 1 354 c0 205 -3 353 -8 353 -5 0 -15
-6 -21 -14z m-89 -553 c-6 -61 -22 -43 -22 25 0 50 1 54 13 37 8 -12 12 -37 9
-62z"/>
<path d="M912 6088 c-7 -7 -12 -16 -12 -22 0 -5 -7 -18 -17 -28 -15 -17 -15
-18 10 -18 17 0 32 9 43 25 24 37 5 72 -24 43z"/>
<path d="M6966 5879 c-8 -12 -12 -28 -9 -36 4 -11 10 -10 29 8 13 12 24 28 24
36 0 20 -27 15 -44 -8z"/>
<path d="M7710 5851 c0 -6 4 -13 10 -16 6 -3 7 1 4 9 -7 18 -14 21 -14 7z"/>
<path d="M7750 5755 c0 -8 -4 -15 -10 -15 -5 0 -10 5 -10 10 0 6 -7 10 -15 10
-9 0 -15 -9 -15 -24 0 -30 18 -44 26 -21 4 9 13 14 20 11 10 -4 14 3 14 19 0
14 -2 25 -5 25 -3 0 -5 -7 -5 -15z"/>
<path d="M306 5684 c-4 -11 -1 -14 11 -12 9 2 18 9 21 16 6 18 -25 15 -32 -4z"/>
<path d="M7505 5661 c-3 -5 -1 -12 5 -16 5 -3 10 1 10 9 0 18 -6 21 -15 7z"/>
<path d="M305 5631 c-3 -5 -1 -12 5 -16 5 -3 10 1 10 9 0 18 -6 21 -15 7z"/>
<path d="M6705 5434 c-15 -11 -13 -13 18 -19 41 -8 67 -4 70 10 3 16 -68 23
-88 9z"/>
<path d="M7075 5430 c3 -5 15 -10 26 -10 11 0 17 5 14 10 -3 6 -15 10 -26 10
-11 0 -17 -4 -14 -10z"/>
<path d="M470 5415 c0 -8 5 -15 10 -15 6 0 10 7 10 15 0 8 -4 15 -10 15 -5 0
-10 -7 -10 -15z"/>
<path d="M7330 5420 c19 -13 30 -13 30 0 0 6 -10 10 -22 10 -19 0 -20 -2 -8
-10z"/>
<path d="M7370 5420 c0 -5 5 -10 10 -10 6 0 10 5 10 10 0 6 -4 10 -10 10 -5 0
-10 -4 -10 -10z"/>
<path d="M6648 5413 c6 -2 18 -2 25 0 6 3 1 5 -13 5 -14 0 -19 -2 -12 -5z"/>
<path d="M7427 5400 c13 -15 20 -17 31 -8 12 10 11 13 -5 19 -34 14 -44 10
-26 -11z"/>
<path d="M7403 5335 c0 -8 4 -12 9 -9 4 3 8 9 8 15 0 5 -4 9 -8 9 -5 0 -9 -7
-9 -15z"/>
<path d="M7493 5323 c-28 -5 -30 -23 -3 -23 11 0 20 5 20 11 0 5 5 7 12 3 7
-4 8 -3 4 4 -4 7 -8 11 -9 11 -1 -1 -12 -4 -24 -6z"/>
<path d="M7406 5300 c-2 -8 -7 -34 -9 -57 -4 -33 -2 -43 9 -43 16 0 19 -36 5
-45 -6 -3 -16 -18 -24 -33 -13 -27 -12 -29 13 -41 22 -9 34 -9 55 1 18 8 32 9
43 2 20 -12 52 -7 52 8 0 5 -7 22 -16 38 -14 22 -15 34 -6 58 9 27 8 32 -14
47 -13 8 -24 22 -24 30 0 8 -4 15 -10 15 -5 0 -10 -7 -10 -15 0 -7 -8 -19 -17
-24 -16 -9 -16 -12 -3 -20 8 -6 11 -13 7 -18 -12 -11 -27 18 -27 52 0 37 -16
68 -24 45z"/>
<path d="M7692 5179 c-10 -26 -22 -345 -14 -399 2 -16 8 -27 14 -24 5 3 7 13
4 22 -3 10 0 94 7 187 7 94 10 186 6 205 l-6 35 -11 -26z"/>
<path d="M7400 5040 c0 -11 4 -20 9 -20 5 0 13 -9 16 -20 4 -14 15 -20 33 -20
24 0 71 19 48 20 -5 0 -2 8 7 18 15 16 13 17 -29 18 -25 1 -50 6 -56 12 -18
18 -28 14 -28 -8z"/>
<path d="M7985 5051 c-3 -5 -1 -12 5 -16 5 -3 10 1 10 9 0 18 -6 21 -15 7z"/>
<path d="M5158 4976 c-19 -14 -25 -56 -8 -56 6 0 10 -8 10 -19 0 -29 29 -91
43 -91 33 1 39 16 24 66 -8 27 -12 60 -10 73 5 38 -27 52 -59 27z"/>
<path d="M7378 4933 c-14 -4 -18 -15 -18 -59 0 -30 -4 -54 -10 -54 -5 0 -1
-16 10 -35 11 -20 20 -42 20 -50 0 -8 9 -15 19 -15 11 0 28 -3 38 -6 13 -4 15
-3 4 4 -15 11 2 27 19 17 5 -3 16 7 24 22 8 15 27 39 41 52 38 35 29 61 -19
52 -5 -1 -18 6 -29 16 -11 10 -17 12 -13 6 5 -9 2 -11 -9 -7 -9 4 -14 12 -12
18 2 6 0 19 -5 29 -8 17 -25 19 -60 10z m6 -68 c-4 -8 -8 -15 -10 -15 -2 0 -4
7 -4 15 0 8 4 15 10 15 5 0 7 -7 4 -15z"/>
<path d="M7740 4839 c-10 -17 -9 -24 4 -38 15 -14 18 -14 26 -1 14 21 12 36
-4 49 -12 10 -17 8 -26 -10z"/>
<path d="M7346 4723 c-11 -3 -26 -11 -33 -18 -10 -11 -52 -13 -181 -11 -92 2
-176 -1 -187 -5 -13 -5 -1 -8 38 -8 32 -1 68 -6 80 -12 19 -11 185 -25 247
-21 77 4 135 18 135 32 0 9 -10 16 -25 17 -14 0 -33 1 -44 2 -12 1 -16 6 -12
16 3 8 4 14 3 14 -1 -1 -11 -4 -21 -6z"/>
<path d="M7659 4687 c-25 -19 -2 -43 49 -51 23 -3 60 -9 81 -12 22 -3 48 -1
58 4 14 8 23 6 40 -10 13 -12 35 -22 50 -23 16 -1 36 -5 46 -9 15 -7 17 -2 17
38 l0 46 -63 0 c-35 0 -68 -5 -73 -10 -7 -7 -19 -7 -35 -1 -14 5 -36 7 -50 4
-16 -3 -39 3 -60 16 -40 24 -39 24 -60 8z"/>
<path d="M7804 4538 c4 -13 10 -31 13 -40 4 -13 0 -18 -15 -18 -25 0 -34 -11
-23 -29 7 -11 11 -9 19 5 10 17 11 16 17 -9 4 -15 5 -39 3 -52 -3 -16 -1 -25
7 -25 22 0 35 -25 27 -53 -4 -15 -11 -26 -17 -24 -16 3 -19 -65 -3 -74 25 -16
65 -10 71 11 4 14 14 20 32 20 23 0 25 -2 15 -15 -16 -19 -4 -35 26 -35 l24 0
0 155 c0 166 -2 172 -50 143 -15 -10 -22 -9 -37 3 -25 21 -92 59 -105 59 -6 0
-8 -9 -4 -22z"/>
<path d="M7965 4180 c-3 -5 -1 -10 4 -10 6 0 11 5 11 10 0 6 -2 10 -4 10 -3 0
-8 -4 -11 -10z"/>
<path d="M7713 4125 c-16 -18 -5 -55 18 -55 22 0 34 16 18 25 -6 4 -13 15 -17
25 -6 14 -9 15 -19 5z"/>
<path d="M7887 4067 c-12 -11 -21 -23 -19 -28 1 -5 -3 -9 -10 -9 -6 0 -8 -3
-5 -7 10 -9 96 -12 102 -4 2 4 6 21 9 38 5 27 3 29 -25 29 -16 0 -40 -8 -52
-19z"/>
<path d="M7180 4060 c0 -5 11 -10 25 -10 14 0 25 5 25 10 0 6 -11 10 -25 10
-14 0 -25 -4 -25 -10z"/>
<path d="M5160 4010 c0 -5 5 -10 10 -10 6 0 10 5 10 10 0 6 -4 10 -10 10 -5 0
-10 -4 -10 -10z"/>
<path d="M7719 3979 c-11 -6 -11 -11 -1 -21 10 -10 15 -9 28 4 13 13 13 16 1
21 -7 3 -20 1 -28 -4z"/>
<path d="M6610 3970 c0 -5 7 -10 15 -10 8 0 15 5 15 10 0 6 -7 10 -15 10 -8 0
-15 -4 -15 -10z"/>
<path d="M7930 3939 c0 -24 23 -21 28 4 2 10 -3 17 -12 17 -10 0 -16 -9 -16
-21z"/>
<path d="M7807 3943 c-14 -13 -6 -33 13 -33 13 0 20 7 20 20 0 19 -20 27 -33
13z"/>
<path d="M6105 3870 c3 -5 11 -10 16 -10 6 0 7 5 4 10 -3 6 -11 10 -16 10 -6
0 -7 -4 -4 -10z"/>
<path d="M7910 3850 c0 -5 5 -10 11 -10 5 0 7 5 4 10 -3 6 -8 10 -11 10 -2 0
-4 -4 -4 -10z"/>
<path d="M5910 3840 c0 -13 18 -22 24 -11 3 5 -1 11 -9 15 -8 3 -15 1 -15 -4z"/>
<path d="M2510 3650 c0 -5 5 -10 10 -10 6 0 10 5 10 10 0 6 -4 10 -10 10 -5 0
-10 -4 -10 -10z"/>
<path d="M2425 3460 c-3 -5 1 -10 9 -10 9 0 16 5 16 10 0 6 -4 10 -9 10 -6 0
-13 -4 -16 -10z"/>
<path d="M1862 3410 c0 -14 2 -19 5 -12 2 6 2 18 0 25 -3 6 -5 1 -5 -13z"/>
<path d="M2410 3400 c0 -11 5 -20 10 -20 6 0 10 9 10 20 0 11 -4 20 -10 20 -5
0 -10 -9 -10 -20z"/>
<path d="M2213 3333 c-8 -23 -93 -123 -104 -123 -4 0 -13 16 -20 35 -7 19 -17
35 -21 35 -5 0 -12 10 -17 22 -7 19 -14 22 -57 19 -70 -4 -100 -29 -115 -97
-7 -31 -19 -58 -26 -61 -30 -12 -5 -236 28 -254 11 -5 16 -16 13 -24 -4 -8 -1
-15 6 -15 6 0 9 4 6 8 -3 5 1 20 9 35 7 14 11 28 9 30 -3 2 15 14 38 25 70 35
123 76 126 100 2 12 7 22 12 22 4 0 10 9 13 19 3 14 11 18 26 14 25 -6 26 -10
46 -151 17 -116 16 -194 -2 -247 -27 -75 -35 -103 -43 -138 -4 -21 -13 -44
-19 -50 -6 -6 -11 -21 -11 -33 0 -13 -4 -26 -10 -29 -5 -3 -10 -15 -10 -26 0
-10 -4 -27 -9 -37 -35 -65 -40 -90 -32 -143 7 -42 6 -58 -5 -70 -8 -8 -14 -25
-14 -37 0 -11 -4 -23 -10 -27 -5 -3 -6 -13 -3 -22 5 -13 9 -12 24 8 l19 24 0
-38 c0 -24 -5 -40 -14 -43 -12 -5 -13 -11 -1 -44 9 -25 10 -41 3 -48 -7 -7 -6
-17 1 -30 11 -21 6 -52 -9 -52 -10 0 -7 -40 4 -58 17 -28 24 -70 13 -81 -8 -8
-4 -18 14 -38 13 -16 30 -38 37 -50 11 -21 10 -23 -13 -23 -27 0 -32 -9 -13
-28 16 -16 28 -15 28 3 0 24 14 17 34 -16 14 -23 15 -34 7 -42 -9 -9 -13 -6
-17 11 -4 13 -14 22 -26 22 -16 0 -18 -3 -9 -13 6 -8 7 -17 1 -23 -6 -6 -6
-15 0 -24 7 -10 10 -11 10 -2 0 23 25 12 26 -13 1 -16 -5 -26 -17 -30 -22 -7
-19 -31 7 -72 17 -26 18 -55 4 -69 -8 -8 -6 -15 5 -24 11 -9 15 -9 15 0 0 6 5
10 12 8 15 -5 21 -85 7 -94 -7 -4 -5 -12 4 -22 8 -10 18 -30 23 -47 l8 -30 4
33 c2 25 7 32 19 28 8 -3 19 -6 25 -6 6 0 8 -7 4 -15 -6 -18 27 -55 49 -55 8
0 15 -7 15 -15 0 -17 -35 -21 -45 -5 -3 6 -14 10 -23 10 -15 -1 -15 -2 2 -15
10 -7 15 -18 12 -24 -4 -5 2 -14 11 -20 19 -10 16 -12 -25 -23 -8 -2 -3 -13
14 -31 24 -26 28 -27 42 -13 10 10 12 19 6 28 -14 18 -12 50 4 55 10 4 18 -42
14 -79 -1 -3 6 -12 15 -20 15 -11 16 -10 11 10 -4 15 -2 22 9 22 8 0 12 -4 9
-9 -3 -5 10 -12 30 -15 25 -5 38 -14 44 -32 9 -24 11 -24 32 -10 31 22 48 20
48 -5 0 -12 4 -17 11 -13 6 3 9 19 5 35 -5 24 -2 29 14 29 15 0 20 -7 20 -25
0 -28 24 -35 34 -9 7 19 26 9 26 -16 0 -20 -22 -32 -45 -24 -11 5 -15 -1 -15
-21 0 -21 4 -26 16 -21 9 3 22 6 30 6 8 0 14 9 14 20 0 12 7 20 16 20 11 0 14
5 9 18 -4 9 -10 26 -13 37 -5 19 -4 19 15 2 27 -23 65 -23 56 1 -4 9 -11 20
-17 25 -8 5 -7 10 3 16 7 5 11 13 7 19 -4 7 4 8 26 2 45 -14 56 -27 33 -44
-20 -14 -14 -51 8 -44 14 5 28 72 30 148 l2 55 -40 0 c-38 0 -40 1 -37 28 2
18 -1 26 -7 22 -6 -3 -11 -15 -11 -25 0 -10 -4 -20 -9 -22 -5 -1 -13 -16 -17
-31 -6 -28 -6 -28 30 -22 24 5 36 4 36 -4 0 -18 -42 -30 -70 -19 -13 5 -34 7
-46 4 -13 -4 -26 -2 -29 4 -3 5 1 10 9 10 10 0 16 9 16 25 0 20 -5 25 -24 25
-13 0 -27 7 -30 16 -10 25 -7 84 4 84 20 0 10 19 -17 32 -17 8 -30 25 -36 47
-11 46 -32 64 -63 57 -24 -6 -84 19 -84 36 0 4 -9 16 -21 27 -17 15 -19 23
-10 39 15 29 14 52 -4 52 -8 0 -15 5 -15 10 0 14 11 12 34 -5 29 -22 32 -19
33 24 2 46 -15 66 -52 59 -18 -4 -25 -1 -25 11 0 14 -2 14 -10 1 -15 -23 -12
-6 5 26 8 16 15 23 15 16 0 -7 4 -11 9 -8 10 6 8 63 -3 73 -3 3 -7 -7 -7 -23
-2 -27 -2 -27 -6 -4 -3 14 -10 31 -15 38 -8 9 -6 12 6 12 18 0 22 26 4 32 -7
3 -9 11 -3 24 4 10 9 36 9 56 2 29 -2 39 -16 44 -10 3 -18 15 -18 27 0 12 -9
36 -20 54 l-19 32 43 29 c36 23 42 31 34 46 -6 11 -6 21 1 30 6 7 10 26 10 42
-1 16 2 62 5 102 5 61 3 73 -8 69 -30 -12 -23 24 11 59 l36 38 -12 155 c-7 86
-13 210 -12 276 l1 120 -60 58 c-73 71 -88 110 -72 194 5 32 13 68 17 81 6 18
4 22 -14 22 -12 0 -25 -8 -28 -17z m118 -1077 c10 6 13 -9 3 -19 -12 -11 -33
5 -27 21 4 10 8 12 11 4 2 -7 8 -10 13 -6z m-254 -58 c-3 -8 -6 -5 -6 6 -1 11
2 17 5 13 3 -3 4 -12 1 -19z m88 -668 c3 -5 1 -10 -4 -10 -6 0 -11 5 -11 10 0
6 2 10 4 10 3 0 8 -4 11 -10z m-4 -43 c-10 -9 -11 -8 -5 6 3 10 9 15 12 12 3
-3 0 -11 -7 -18z m41 -128 c5 -4 8 -15 5 -25 -4 -17 -6 -17 -12 4 -8 24 -16
27 -31 12 -6 -6 -10 -1 -12 14 -1 13 5 27 13 30 8 3 16 16 17 28 1 13 3 5 5
-17 3 -22 9 -43 15 -46z m23 -87 c6 -4 15 -17 22 -29 10 -17 9 -24 -2 -33 -16
-14 -31 5 -26 34 1 10 -3 23 -11 27 -7 5 -8 9 -3 9 6 0 15 -4 20 -8z m359
-218 c23 -9 20 -24 -4 -24 -11 0 -20 7 -20 15 0 17 2 18 24 9z m96 -14 c0 -5
-4 -10 -9 -10 -6 0 -13 5 -16 10 -3 6 1 10 9 10 9 0 16 -4 16 -10z m-240 -30
c0 -5 -9 -10 -21 -10 -11 0 -17 5 -14 10 3 6 13 10 21 10 8 0 14 -4 14 -10z"/>
<path d="M2620 3324 c0 -8 5 -12 10 -9 6 3 10 10 10 16 0 5 -4 9 -10 9 -5 0
-10 -7 -10 -16z"/>
<path d="M1636 3218 c-9 -12 -16 -26 -16 -30 0 -5 -15 -30 -33 -56 -18 -26
-37 -56 -41 -67 -12 -33 -15 -159 -3 -173 7 -9 7 -16 -1 -24 -15 -15 -16 -88
-1 -88 6 0 8 -7 5 -16 -3 -8 -1 -24 4 -35 7 -13 7 -19 0 -19 -5 0 -10 -22 -10
-48 0 -26 -4 -52 -10 -58 -5 -5 -6 -24 0 -49 6 -27 5 -44 -3 -54 -12 -14 -18
-80 -17 -183 0 -31 -4 -59 -9 -62 -5 -3 -7 -15 -4 -26 3 -12 -2 -28 -10 -38
-13 -15 -15 -25 -7 -54 12 -43 35 -55 50 -28 6 11 15 20 20 20 13 0 13 -67 0
-75 -17 -10 -11 -25 9 -25 14 0 18 -5 14 -20 -3 -11 -9 -20 -14 -20 -5 0 -9
-8 -9 -17 -1 -20 -30 -64 -30 -45 0 7 -8 12 -17 12 -12 0 -14 -3 -6 -8 9 -5 6
-26 -13 -82 -27 -83 -30 -110 -11 -110 6 0 23 -9 37 -20 23 -18 24 -20 4 -20
-11 0 -24 -4 -30 -9 -5 -5 -18 -11 -28 -13 -16 -2 -20 -12 -21 -46 -1 -23 4
-42 9 -42 6 0 3 -5 -6 -11 -10 -5 -18 -16 -18 -24 0 -41 65 -25 85 21 8 19 20
34 28 34 9 0 17 15 21 40 3 23 13 43 21 46 8 4 18 24 21 46 4 22 15 45 25 51
11 7 19 17 19 24 0 7 5 13 10 13 6 0 10 11 10 25 0 14 7 28 15 31 20 8 45 61
45 96 0 15 5 28 11 28 8 0 10 18 5 61 -5 56 -5 60 10 48 15 -12 16 -10 11 26
-3 22 -11 89 -17 150 -6 60 -13 112 -15 113 -10 11 -25 -13 -25 -39 0 -16 -5
-29 -11 -29 -6 0 -8 9 -3 23 9 28 6 99 -4 106 -10 7 -9 27 1 37 11 11 8 34 -4
32 -18 -5 -19 35 -1 55 15 17 15 20 -6 36 -14 10 -19 20 -14 26 5 6 12 29 16
53 7 45 -9 57 -34 27 -8 -9 -17 -12 -22 -7 -10 10 0 42 14 42 5 0 3 7 -6 15
-12 12 -13 22 -5 42 5 14 11 56 12 94 2 37 6 71 10 75 4 4 7 26 7 49 0 26 6
48 15 55 21 17 21 140 1 140 -8 0 -22 -10 -30 -22z m-66 -678 c0 -5 -2 -10 -4
-10 -3 0 -8 5 -11 10 -3 6 -1 10 4 10 6 0 11 -4 11 -10z m0 -280 c0 -11 -7
-20 -15 -20 -13 0 -14 4 -5 20 6 11 13 20 15 20 3 0 5 -9 5 -20z m160 -200 c0
-5 -4 -10 -10 -10 -5 0 -10 5 -10 10 0 6 5 10 10 10 6 0 10 -4 10 -10z"/>
<path d="M5420 3179 c-11 -19 -10 -20 9 -9 22 11 29 30 11 30 -5 0 -14 -9 -20
-21z"/>
<path d="M5517 3163 c-5 -7 -16 -13 -26 -13 -11 0 -24 -12 -31 -30 -7 -16 -16
-30 -21 -30 -4 0 -11 -9 -14 -20 -3 -11 -44 -59 -91 -107 -46 -49 -84 -91 -84
-95 0 -4 -10 -17 -22 -30 -13 -13 -34 -43 -48 -68 -13 -25 -32 -54 -43 -65
-10 -11 -26 -36 -35 -55 -9 -19 -19 -37 -23 -40 -3 -3 -15 -23 -26 -45 -18
-38 -36 -73 -55 -105 -4 -8 -21 -43 -37 -77 -17 -33 -35 -64 -40 -68 -6 -3
-11 -17 -11 -31 0 -13 -4 -24 -10 -24 -5 0 -10 -6 -10 -14 0 -8 -6 -27 -14
-43 -40 -82 -51 -108 -49 -114 1 -4 -4 -13 -12 -19 -8 -7 -15 -21 -15 -31 0
-11 -4 -19 -10 -19 -5 0 -10 -9 -10 -20 0 -17 -24 -81 -49 -130 -5 -8 -16 -41
-25 -73 -9 -31 -21 -57 -27 -57 -6 0 -8 -9 -4 -20 4 -11 2 -20 -4 -20 -6 0
-11 -9 -11 -19 0 -11 -4 -23 -10 -26 -5 -3 -10 -15 -10 -26 0 -10 -5 -19 -11
-19 -6 0 -8 -8 -4 -19 4 -13 -1 -24 -13 -33 -11 -7 -25 -30 -33 -50 -7 -21
-16 -38 -20 -38 -3 0 -9 -18 -13 -40 -3 -21 -17 -56 -31 -76 -26 -38 -32 -64
-15 -64 5 0 13 8 19 17 12 21 24 13 15 -10 -3 -9 -24 -22 -46 -28 -26 -6 -42
-17 -45 -30 -3 -10 -9 -19 -14 -19 -5 0 -9 -4 -9 -10 0 -5 7 -10 15 -10 9 0
15 -9 15 -25 0 -26 -15 -34 -23 -12 -6 19 -37 -48 -37 -82 0 -16 6 -31 13 -34
6 -2 9 -7 5 -11 -3 -4 -15 -3 -27 3 -26 14 -38 -3 -17 -25 22 -21 20 -41 -4
-49 -11 -4 -18 -11 -14 -16 3 -5 -2 -31 -11 -58 -12 -37 -22 -51 -40 -55 -26
-7 -32 -20 -15 -31 12 -7 -15 -65 -30 -65 -6 0 -10 -9 -10 -20 0 -11 -4 -20
-10 -20 -5 0 -10 -8 -11 -17 0 -15 -2 -15 -9 2 -7 17 -9 14 -9 -13 -1 -19 -5
-31 -11 -27 -5 3 -10 -2 -10 -12 0 -10 -9 -29 -20 -43 -11 -14 -20 -30 -20
-37 0 -6 -9 -10 -19 -8 -14 2 -18 -1 -15 -10 4 -8 -3 -15 -18 -17 -18 -2 -22
-8 -20 -26 3 -22 1 -23 -26 -17 -35 7 -56 -13 -23 -22 24 -6 28 -23 6 -23 -8
0 -15 -4 -15 -9 0 -5 -6 -16 -12 -23 -7 -8 -19 -24 -26 -37 -12 -20 -11 -25 5
-37 10 -7 13 -14 6 -14 -6 0 -22 -21 -35 -47 -13 -27 -31 -54 -40 -61 -10 -7
-18 -22 -18 -34 0 -11 -9 -32 -19 -46 -18 -26 -21 -33 -21 -50 0 -5 -11 -14
-24 -22 -35 -18 -30 -50 8 -50 30 0 55 23 56 52 0 9 4 18 8 20 8 3 55 80 81
131 7 15 17 27 22 27 5 0 9 7 9 15 0 8 4 15 8 15 4 0 15 12 24 28 18 29 46 64
90 114 14 16 32 51 38 76 10 40 19 52 63 82 58 40 79 75 97 165 7 33 17 64 21
69 5 6 9 18 9 28 0 10 4 18 8 18 5 0 17 20 28 45 10 25 22 45 26 45 4 0 8 6 8
13 0 6 36 83 80 171 53 104 80 170 80 192 0 23 6 38 20 46 11 7 20 20 20 28 0
9 16 31 35 50 42 40 67 109 59 160 -4 26 0 49 13 77 12 24 18 53 15 71 -4 33
12 95 32 115 20 20 56 105 56 132 0 14 5 25 10 25 6 0 10 8 10 18 0 9 11 33
24 52 12 19 29 53 37 75 7 22 24 59 36 83 61 113 75 138 87 147 7 6 21 24 30
40 52 93 75 130 87 139 8 6 21 24 29 40 8 16 36 51 63 78 26 26 47 54 47 60 0
11 7 21 68 82 12 13 22 31 22 41 0 10 16 40 35 66 19 27 35 55 35 62 0 7 14
23 30 36 17 12 28 26 25 32 -4 5 -1 25 5 44 13 38 10 79 -3 58z"/>
<path d="M2610 3104 c0 -8 5 -12 10 -9 6 3 10 10 10 16 0 5 -4 9 -10 9 -5 0
-10 -7 -10 -16z"/>
<path d="M5615 3110 c-11 -4 -23 -6 -27 -3 -5 2 -8 -7 -8 -21 0 -18 4 -24 15
-20 8 4 15 10 15 15 0 5 6 9 14 9 17 0 30 16 19 23 -5 2 -17 1 -28 -3z"/>
<path d="M2516 3061 c-3 -5 1 -11 9 -15 16 -6 9 -36 -9 -36 -6 0 -23 -15 -38
-34 -23 -28 -25 -36 -13 -46 10 -8 18 -8 34 2 12 7 21 16 21 21 0 4 11 25 25
47 29 46 30 50 10 50 -8 0 -15 5 -15 10 0 12 -17 13 -24 1z"/>
<path d="M5697 3009 c-9 -6 -17 -14 -17 -19 0 -17 27 -11 34 6 8 22 5 25 -17
13z"/>
<path d="M4242 2947 c-24 -25 -28 -37 -12 -37 11 0 45 48 38 55 -2 3 -14 -5
-26 -18z"/>
<path d="M6026 2955 c4 -8 10 -15 15 -15 5 0 9 7 9 15 0 8 -7 15 -15 15 -9 0
-12 -6 -9 -15z"/>
<path d="M2550 2830 c0 -5 5 -10 11 -10 5 0 7 5 4 10 -3 6 -8 10 -11 10 -2 0
-4 -4 -4 -10z"/>
<path d="M2490 2816 c0 -9 5 -16 10 -16 6 0 10 4 10 9 0 6 -4 13 -10 16 -5 3
-10 -1 -10 -9z"/>
<path d="M2720 2571 c0 -22 5 -43 10 -46 6 -4 8 -10 5 -15 -3 -4 2 -13 10 -20
8 -7 15 -21 15 -31 0 -11 5 -19 10 -19 6 0 10 -7 10 -15 0 -8 5 -15 10 -15 6
0 10 -9 10 -21 0 -22 24 -52 34 -42 7 7 8 -12 6 -78 -1 -26 3 -50 9 -54 14 -8
14 -45 0 -45 -5 0 -8 -4 -4 -9 6 -11 49 26 58 51 3 9 1 19 -6 22 -7 2 -4 5 6
5 9 1 17 -4 17 -10 0 -17 27 15 47 57 14 30 23 38 41 36 20 -3 21 -1 12 24 -6
14 -19 39 -30 54 -11 16 -20 30 -20 33 0 12 -88 95 -130 123 -46 31 -94 54
-110 54 -6 0 -10 -18 -10 -39z"/>
<path d="M3280 2494 c0 -8 5 -12 10 -9 6 3 10 10 10 16 0 5 -4 9 -10 9 -5 0
-10 -7 -10 -16z"/>
<path d="M5550 2420 c-13 -8 -13 -10 2 -10 9 0 20 5 23 10 8 13 -5 13 -25 0z"/>
<path d="M5950 2305 c0 -8 7 -15 15 -15 9 0 12 6 9 15 -4 8 -10 15 -15 15 -5
0 -9 -7 -9 -15z"/>
<path d="M1263 2169 c-12 -12 4 -61 48 -145 24 -47 25 -51 8 -47 -11 3 -18 12
-17 21 2 8 -3 17 -9 19 -7 3 -13 -1 -13 -7 0 -7 -6 -5 -16 4 -8 9 -26 16 -40
16 -24 0 -32 -14 -15 -25 5 -3 12 -18 16 -34 3 -16 17 -37 31 -47 13 -10 24
-29 24 -41 0 -19 -6 -23 -30 -23 -16 0 -30 -4 -30 -10 0 -5 9 -10 20 -10 11 0
20 -4 20 -10 0 -14 -26 -12 -63 4 -76 32 -87 35 -87 25 0 -5 8 -13 18 -16 9
-4 19 -10 22 -13 3 -4 21 -18 41 -31 97 -65 131 -94 114 -97 -10 -2 -20 1 -24
6 -18 29 -111 37 -111 10 0 -6 9 -8 19 -5 13 3 21 -1 24 -14 3 -12 0 -19 -9
-19 -23 0 -4 -30 24 -37 46 -11 91 -46 92 -71 0 -20 -4 -23 -27 -20 -16 2 -27
8 -25 16 1 6 -2 12 -8 12 -13 0 -13 -27 0 -35 6 -4 4 -12 -5 -21 -18 -18 -10
-40 9 -25 7 6 15 8 19 5 3 -3 11 4 17 16 16 30 27 11 22 -39 -3 -29 -8 -38
-18 -34 -8 3 -14 -1 -14 -8 0 -12 -2 -12 -9 0 -6 9 -16 11 -27 7 -18 -7 -18
-8 -1 -17 9 -6 17 -17 17 -25 0 -10 7 -13 25 -8 19 5 25 2 25 -9 0 -9 -4 -18
-8 -21 -9 -6 -8 -74 2 -97 4 -8 2 -27 -3 -41 -8 -21 -15 -25 -35 -21 -15 3
-29 9 -32 14 -13 21 -34 7 -40 -28 -4 -21 -12 -41 -18 -45 -6 -4 -7 -10 -3
-15 5 -4 12 -1 16 6 13 21 46 9 44 -17 -4 -30 9 -28 29 5 l16 26 16 -31 c19
-36 19 -36 -56 -32 -30 1 -48 -2 -48 -9 0 -6 19 -12 43 -13 l42 -1 -38 -4
c-32 -4 -36 -7 -26 -19 6 -8 20 -14 31 -14 11 0 18 -5 15 -12 -2 -7 -13 -12
-23 -11 -21 3 -64 -16 -64 -28 0 -4 9 -11 21 -14 11 -4 18 -9 15 -12 -3 -4 -1
-12 5 -19 9 -11 6 -20 -12 -39 -13 -13 -29 -25 -36 -25 -18 0 -33 -33 -26 -58
4 -16 1 -22 -11 -22 -24 0 -20 -8 27 -52 71 -68 166 -124 222 -132 28 -4 58
-9 68 -12 29 -9 19 -24 -15 -24 -38 0 -195 46 -203 60 -8 12 -25 13 -44 1 -12
-8 -12 -13 2 -35 11 -16 15 -35 11 -51 -4 -16 -2 -25 6 -25 6 0 8 -5 5 -10 -4
-6 -10 -8 -15 -5 -10 6 -23 -12 -27 -39 -2 -11 -8 -25 -13 -31 -6 -7 -6 -15 0
-21 14 -14 -33 -49 -71 -52 -57 -5 -54 -22 4 -25 20 -2 39 -6 43 -10 8 -7 -9
-11 -38 -8 -10 1 -18 -3 -18 -8 0 -8 -6 -7 -19 0 -10 7 -27 9 -37 5 -16 -7
-14 -10 16 -25 19 -9 54 -29 77 -44 24 -15 46 -27 51 -27 8 0 52 -46 52 -54 0
-2 -39 13 -87 34 -111 47 -129 51 -144 34 -16 -19 -33 -18 -54 6 -24 26 -52
26 -50 0 2 -26 34 -60 57 -60 10 0 18 -4 18 -9 0 -5 15 -14 33 -22 17 -7 34
-15 37 -18 3 -3 31 -19 64 -34 32 -15 56 -31 52 -34 -7 -8 -148 17 -161 29 -5
4 -16 8 -25 8 -8 0 -28 7 -44 15 -15 8 -33 15 -38 15 -5 0 -34 11 -64 25 -58
26 -94 31 -110 15 -12 -12 -115 5 -154 25 -14 7 -43 16 -65 19 -22 3 -33 3
-25 0 20 -9 81 -34 105 -45 41 -17 141 -43 158 -40 23 3 195 -62 290 -110 36
-18 68 -19 630 -19 l592 0 55 53 c45 43 85 76 139 114 10 7 -47 56 -89 79 -25
13 -52 28 -60 33 -57 36 -178 81 -216 81 -17 0 -37 7 -44 15 -7 9 -29 15 -52
15 -33 0 -41 4 -46 22 -5 21 -6 21 -13 2 -6 -15 -8 -13 -8 12 -1 38 -24 59
-60 56 -20 -2 -30 3 -39 20 -6 13 -11 17 -11 11 -1 -7 -7 -13 -14 -13 -15 0
-35 44 -39 90 -2 27 -10 38 -33 50 -18 9 -30 23 -30 35 -1 40 -35 65 -35 25 0
-11 -5 -20 -11 -20 -6 0 -8 7 -5 16 4 9 -2 22 -14 32 -12 10 -22 30 -24 45 -2
17 -19 43 -43 66 -39 38 -40 40 -19 49 20 10 20 11 1 12 -26 1 -47 18 -62 50
-28 60 -54 201 -64 343 -5 84 -15 183 -21 221 -9 51 -9 99 0 190 8 81 8 136 2
166 -21 95 -22 108 -10 164 13 65 11 71 -55 116 -29 20 -45 26 -52 19z m-3
-979 c0 -5 -5 -10 -11 -10 -5 0 -7 5 -4 10 3 6 8 10 11 10 2 0 4 -4 4 -10z
m-47 -851 c-17 -17 -37 -1 -22 17 8 10 15 12 23 4 7 -7 7 -13 -1 -21z m-23
-69 c-8 -5 -22 -10 -30 -10 -13 0 -13 1 0 10 8 5 22 10 30 10 13 0 13 -1 0
-10z"/>
<path d="M1505 2010 c-8 -13 3 -30 18 -30 7 0 13 9 13 20 0 21 -20 27 -31 10z"/>
<path d="M1191 1894 c0 -11 3 -14 6 -6 3 7 2 16 -1 19 -3 4 -6 -2 -5 -13z"/>
<path d="M2550 1828 c0 -24 16 -38 38 -33 53 10 51 28 -5 40 -24 5 -33 3 -33
-7z"/>
<path d="M2821 1804 c0 -11 3 -14 6 -6 3 7 2 16 -1 19 -3 4 -6 -2 -5 -13z"/>
<path d="M5468 1788 c9 -9 15 -9 24 0 9 9 7 12 -12 12 -19 0 -21 -3 -12 -12z"/>
<path d="M2596 1782 c-3 -3 -6 -21 -6 -39 0 -31 2 -34 23 -28 36 11 52 31 38
48 -13 16 -47 28 -55 19z"/>
<path d="M2070 1665 c7 -9 15 -13 17 -11 7 7 -7 26 -19 26 -6 0 -6 -6 2 -15z"/>
<path d="M2615 1670 c-3 -5 1 -10 10 -10 9 0 13 5 10 10 -3 6 -8 10 -10 10 -2
0 -7 -4 -10 -10z"/>
<path d="M5090 1620 c-8 -5 -37 -17 -63 -26 -27 -10 -51 -23 -54 -31 -3 -7
-15 -13 -28 -13 -12 0 -28 -7 -35 -15 -10 -12 -9 -16 6 -22 10 -4 19 -2 22 5
2 7 10 12 18 12 7 0 28 9 46 20 18 11 40 20 49 20 27 0 135 52 120 58 -7 2
-16 0 -20 -6 -4 -7 -12 -8 -21 -2 -18 11 -21 11 -40 0z"/>
<path d="M2805 1590 c-3 -5 -1 -10 4 -10 6 0 11 5 11 10 0 6 -2 10 -4 10 -3 0
-8 -4 -11 -10z"/>
<path d="M2575 1580 c3 -5 10 -10 16 -10 5 0 9 5 9 10 0 6 -7 10 -16 10 -8 0
-12 -4 -9 -10z"/>
<path d="M1200 1540 c0 -5 5 -10 10 -10 6 0 10 5 10 10 0 6 -4 10 -10 10 -5 0
-10 -4 -10 -10z"/>
<path d="M4847 1491 c-15 -10 -35 -26 -45 -35 -9 -10 -33 -27 -52 -39 -32 -20
-33 -22 -12 -25 29 -4 82 19 82 36 0 7 7 15 16 19 19 7 64 47 64 57 0 11 -24
5 -53 -13z"/>
<path d="M2790 1415 c0 -8 4 -15 10 -15 5 0 7 7 4 15 -4 8 -8 15 -10 15 -2 0
-4 -7 -4 -15z"/>
<path d="M2705 1391 c-3 -5 -1 -12 5 -16 5 -3 10 1 10 9 0 18 -6 21 -15 7z"/>
<path d="M2720 1336 c0 -2 9 -6 20 -9 11 -3 20 -1 20 4 0 5 -9 9 -20 9 -11 0
-20 -2 -20 -4z"/>
<path d="M2716 1292 c-3 -5 1 -9 9 -9 8 0 15 4 15 9 0 4 -4 8 -9 8 -6 0 -12
-4 -15 -8z"/>
<path d="M2610 1230 c0 -5 5 -10 11 -10 5 0 7 5 4 10 -3 6 -8 10 -11 10 -2 0
-4 -4 -4 -10z"/>
<path d="M4165 1170 c-3 -5 -1 -10 4 -10 6 0 11 5 11 10 0 6 -2 10 -4 10 -3 0
-8 -4 -11 -10z"/>
<path d="M4140 1080 c0 -5 4 -10 9 -10 6 0 13 5 16 10 3 6 -1 10 -9 10 -9 0
-16 -4 -16 -10z"/>
<path d="M2833 949 c-1 -33 1 -36 13 -24 18 17 18 51 1 58 -9 3 -13 -6 -14
-34z"/>
<path d="M2334 935 c-4 -8 -14 -15 -24 -15 -22 0 -16 -35 12 -64 19 -21 8 -39
-19 -29 -7 3 -13 -1 -13 -10 0 -15 28 -27 68 -27 23 0 30 -14 12 -25 -17 -10
-2 -24 20 -18 12 3 22 -1 26 -11 3 -9 12 -16 19 -16 7 0 18 -6 24 -14 10 -12
9 -20 -4 -40 -20 -29 -11 -54 11 -35 22 18 42 -4 24 -26 -9 -11 -9 -19 -2 -28
6 -7 9 -30 7 -50 -3 -34 -1 -38 18 -35 15 2 21 9 19 21 -2 11 4 17 15 18 15 0
13 3 -5 12 -18 8 -22 16 -17 31 12 37 16 176 5 176 -13 0 -13 41 0 76 15 39 7
52 -29 46 -25 -3 -31 -9 -31 -28 0 -13 -4 -24 -10 -24 -5 0 -10 5 -10 10 0 6
-9 10 -20 10 -21 0 -26 16 -11 39 10 16 -20 51 -44 51 -8 0 -15 5 -15 10 0 16
-20 12 -26 -5z"/>
<path d="M4072 928 c-7 -7 -12 -18 -12 -25 0 -7 -7 -13 -15 -13 -8 0 -15 -4
-15 -10 0 -5 9 -10 20 -10 13 0 20 -7 20 -18 0 -15 6 -17 34 -14 31 4 34 7 39
45 3 23 3 45 1 49 -8 12 -59 9 -72 -4z"/>
<path d="M2680 920 c0 -5 12 -10 26 -10 14 0 23 4 19 10 -3 6 -15 10 -26 10
-10 0 -19 -4 -19 -10z"/>
<path d="M4170 916 c0 -18 31 -29 54 -20 23 9 20 27 -3 19 -11 -3 -22 -1 -26
5 -9 15 -25 12 -25 -4z"/>
<path d="M2475 901 c-6 -11 9 -23 19 -14 9 9 7 23 -3 23 -6 0 -12 -4 -16 -9z"/>
<path d="M4188 873 c-10 -2 -18 -9 -18 -15 0 -5 7 -7 16 -4 9 3 20 6 25 6 5 0
9 5 9 10 0 10 -3 11 -32 3z"/>
<path d="M1055 860 c-3 -5 -1 -10 4 -10 6 0 11 5 11 10 0 6 -2 10 -4 10 -3 0
-8 -4 -11 -10z"/>
<path d="M4200 820 c0 -5 7 -10 15 -10 8 0 15 5 15 10 0 6 -7 10 -15 10 -8 0
-15 -4 -15 -10z"/>
<path d="M4094 808 c-3 -5 -16 -8 -30 -8 -13 0 -24 -4 -24 -10 0 -12 77 -13
84 -1 3 4 17 6 31 3 18 -3 25 0 25 11 0 11 -10 15 -41 14 -22 -1 -43 -5 -45
-9z"/>
<path d="M6190 750 c-6 -11 -8 -25 -5 -30 9 -15 35 0 35 20 0 28 -17 33 -30
10z"/>
<path d="M6260 730 c0 -5 5 -10 10 -10 6 0 10 5 10 10 0 6 -4 10 -10 10 -5 0
-10 -4 -10 -10z"/>
<path d="M4050 690 c0 -5 5 -10 10 -10 6 0 10 5 10 10 0 6 -4 10 -10 10 -5 0
-10 -4 -10 -10z"/>
<path d="M5170 666 c0 -2 9 -6 20 -9 11 -3 18 -1 14 4 -5 9 -34 13 -34 5z"/>
<path d="M4049 644 c-21 -25 4 -38 31 -16 l23 19 -21 5 c-12 4 -26 0 -33 -8z"/>
<path d="M1148 633 c7 -3 16 -2 19 1 4 3 -2 6 -13 5 -11 0 -14 -3 -6 -6z"/>
<path d="M5195 601 c-3 -5 -1 -12 5 -16 5 -3 10 1 10 9 0 18 -6 21 -15 7z"/>
<path d="M5395 580 c3 -5 8 -10 11 -10 2 0 4 5 4 10 0 6 -5 10 -11 10 -5 0 -7
-4 -4 -10z"/>
<path d="M830 540 c0 -21 -4 -28 -14 -24 -18 7 -22 -1 -30 -56 l-7 -45 81 -39
c81 -38 110 -41 110 -10 0 10 -3 14 -7 11 -3 -4 -12 2 -20 13 -8 11 -23 20
-34 20 -24 0 -24 9 -1 27 12 10 13 16 5 19 -18 8 -28 5 -28 -6 0 -16 -19 -7
-20 10 -1 8 -5 36 -9 63 -8 52 -26 64 -26 17z"/>
<path d="M5353 559 c-19 -24 -5 -57 23 -55 27 1 32 11 10 19 -8 3 -16 16 -18
28 -3 19 -5 20 -15 8z"/>
<path d="M5420 556 c0 -2 7 -7 16 -10 8 -3 12 -2 9 4 -6 10 -25 14 -25 6z"/>
<path d="M2615 530 c-3 -5 3 -10 14 -10 12 0 21 5 21 10 0 6 -6 10 -14 10 -8
0 -18 -4 -21 -10z"/>
<path d="M4030 511 c0 -12 5 -21 10 -21 6 0 10 6 10 14 0 8 -4 18 -10 21 -5 3
-10 -3 -10 -14z"/>
<path d="M5262 513 c-18 -7 -4 -23 21 -24 21 0 21 -1 2 -10 l-20 -9 20 3 c27
3 34 47 8 46 -10 0 -24 -3 -31 -6z"/>
<path d="M2625 490 c-3 -5 -1 -10 4 -10 6 0 11 5 11 10 0 6 -2 10 -4 10 -3 0
-8 -4 -11 -10z"/>
<path d="M6121 484 c0 -11 3 -14 6 -6 3 7 2 16 -1 19 -3 4 -6 -2 -5 -13z"/>
<path d="M5170 480 c0 -5 5 -10 11 -10 5 0 7 5 4 10 -3 6 -8 10 -11 10 -2 0
-4 -4 -4 -10z"/>
<path d="M1115 460 c3 -5 8 -10 11 -10 2 0 4 5 4 10 0 6 -5 10 -11 10 -5 0 -7
-4 -4 -10z"/>
<path d="M4510 460 c0 -5 5 -10 11 -10 5 0 7 5 4 10 -3 6 -8 10 -11 10 -2 0
-4 -4 -4 -10z"/>
<path d="M5200 460 c0 -5 5 -10 11 -10 5 0 7 5 4 10 -3 6 -8 10 -11 10 -2 0
-4 -4 -4 -10z"/>
<path d="M2512 436 c1 -10 8 -17 13 -17 15 1 12 24 -3 29 -9 3 -13 -2 -10 -12z"/>
<path d="M5115 441 c-6 -11 9 -23 19 -14 9 9 7 23 -3 23 -6 0 -12 -4 -16 -9z"/>
<path d="M5298 423 c7 -3 16 -2 19 1 4 3 -2 6 -13 5 -11 0 -14 -3 -6 -6z"/>
<path d="M6090 402 c0 -10 -9 -43 -20 -75 -22 -62 -26 -92 -10 -82 6 3 10 19
10 36 0 16 4 29 9 29 5 0 11 12 14 28 3 15 9 39 13 55 4 17 2 27 -5 27 -6 0
-11 -8 -11 -18z"/>
<path d="M2531 391 c-15 -9 -8 -41 8 -41 14 0 19 13 12 32 -4 12 -10 15 -20 9z"/>
<path d="M2563 387 c-4 -6 -1 -13 5 -15 7 -2 9 -8 6 -14 -13 -21 -11 -78 3
-78 7 0 13 11 13 25 0 14 5 25 11 25 6 0 8 -7 5 -15 -6 -18 17 -31 34 -20 8 5
5 12 -8 21 -11 7 -19 25 -19 39 0 20 3 24 18 20 14 -5 17 -2 13 8 -6 18 -71
21 -81 4z"/>
<path d="M0 290 c0 -6 28 -10 64 -10 36 0 68 5 71 10 4 6 -20 10 -64 10 -41 0
-71 -4 -71 -10z"/>
<path d="M160 289 c0 -5 11 -9 25 -9 14 0 25 2 25 4 0 2 -11 6 -25 8 -14 3
-25 1 -25 -3z"/>
<path d="M233 273 c9 -2 23 -2 30 0 6 3 -1 5 -18 5 -16 0 -22 -2 -12 -5z"/>
<path d="M2625 268 c-29 -17 -45 -35 -38 -42 11 -11 22 -6 28 14 3 11 14 19
23 17 9 -1 18 2 20 8 5 14 -10 16 -33 3z"/>
<path d="M305 250 c3 -5 15 -10 26 -10 11 0 17 5 14 10 -3 6 -15 10 -26 10
-11 0 -17 -4 -14 -10z"/>
<path d="M405 230 c3 -5 13 -10 21 -10 8 0 12 5 9 10 -3 6 -13 10 -21 10 -8 0
-12 -4 -9 -10z"/>
<path d="M2510 189 c0 -13 -4 -18 -12 -13 -8 5 -9 2 -5 -10 4 -10 1 -19 -8
-22 -9 -4 -15 -19 -15 -35 0 -31 -25 -63 -59 -74 -12 -3 -21 -13 -21 -21 0
-21 212 -20 230 1 10 12 10 18 -1 31 -10 13 -9 24 5 65 22 60 16 84 -19 75
-15 -4 -37 0 -55 9 -37 19 -40 19 -40 -6z"/>
</g>
</svg>
